<svg width="172" height="47" viewBox="0 0 172 47" fill="none" xmlns="http://www.w3.org/2000/svg">
<path d="M74.1501 84.2779H44.0483L29.0009 113.673L25.5024 106.807L40.5568 77.4127H70.6517L74.1501 84.2779ZM29.0009 110.123L43.1462 82.4995H71.4299L69.7288 79.1756H41.4382L27.2998 106.807L29.0009 110.123ZM96.3184 86.0486L92.7993 92.9216L77.7519 63.5269H47.6501L51.1692 56.6539H81.2847L96.3184 86.0486ZM92.7993 89.3802L94.5003 86.0486L80.3619 58.4091H52.0713L50.3703 61.7407H78.654L92.7993 89.3802ZM112.275 75.6498L97.2206 105.044H90.1824L105.23 75.6498L90.1824 46.2551H97.2137L112.275 75.6498ZM96.3184 103.274L110.457 75.6498L96.3115 47.9947H92.9026L107.048 75.6187L92.9026 103.243L96.3184 103.274ZM101.642 75.6498L98.1227 82.5228L83.0684 53.1281H52.9666L56.4926 46.2551H86.5875L101.642 75.6498ZM98.1227 78.9737L99.8238 75.6498L85.6785 47.9947H57.3879L55.6869 51.3186H83.9706L98.1227 78.9737ZM132.639 15.1053L129.12 21.9706H99.0249L83.9637 -7.42407L87.4828 -14.2893L102.53 15.1053H132.639ZM128.218 20.1999L129.919 16.876H101.628L87.4828 -10.748L85.7818 -7.42407L99.9271 20.1999H128.218ZM122.908 75.6498L107.854 105.044H100.815L115.87 75.6498L100.815 46.2551H107.847L122.908 75.6498ZM106.952 103.274L121.09 75.6498L106.945 47.9947H103.536L117.681 75.6187L103.536 103.243L106.952 103.274ZM133.541 75.6498L118.473 105.044H111.449L126.503 75.6498L111.449 46.2551H118.473L133.541 75.6498ZM117.578 103.274L131.716 75.6498L117.578 47.9947H114.169L128.314 75.6187L114.169 103.243L117.578 103.274ZM138.851 86.0486L123.796 115.451H93.6808L90.1824 108.57H120.284L135.332 79.1756L138.851 86.0486ZM122.894 113.673L137.067 86.0486L135.366 82.7247L121.228 110.333H92.9026L94.6036 113.657L122.894 113.673ZM84.7832 105.06H54.6814L39.6339 134.439L36.1148 127.574L51.1692 98.1792H81.2847L84.7832 105.06ZM39.6339 130.898L53.7792 103.274H82.0629L80.3619 99.9499H52.0713L37.9329 127.574L39.6339 130.898ZM144.167 96.4241L129.113 125.819H99.018L95.4989 118.946H125.601L140.648 89.5511L144.167 96.4241ZM128.211 124.048L142.349 96.4241L140.648 93.0924L126.51 120.716H98.2192L99.9202 124.048H128.211ZM79.4667 94.6612H49.3649L34.3174 124.056L30.7983 117.191L45.8526 87.7959H75.9475L79.4667 94.6612ZM34.3174 120.514L48.4627 92.8905H76.7464L75.0454 89.5666H46.7548L32.6164 117.191L34.3174 120.514ZM27.2034 137.957L12.1491 167.352H5.11775L20.1652 137.957L5.11775 108.57H12.1491L27.2034 137.957ZM11.2469 165.581L25.3853 137.957L11.2469 110.333H7.80357L21.9489 137.957L7.838 165.581H11.2469ZM127.316 150.103L123.796 156.969H93.6808L78.6265 127.574L82.1456 120.709L97.193 150.103H127.316ZM122.894 155.167L124.595 151.843H96.3115L82.1662 124.219L80.4652 127.543L94.6105 155.167H122.894ZM149.463 106.807L134.409 136.202H104.314L100.795 129.329H130.897L145.944 99.9343L149.463 106.807ZM133.527 134.431L147.666 106.807L145.965 103.483L131.819 131.092H103.536L105.237 134.424L133.527 134.431ZM180.453 42.7371H150.379L135.332 72.1317L131.813 65.2665L146.867 35.8719H176.962L180.453 42.7371ZM135.332 68.5904L149.463 41.0053H177.747L176.046 37.6814H147.776L133.624 65.2665L135.332 68.5904ZM180.453 105.044H173.45L158.416 75.6498L173.463 46.2551H180.453L165.433 75.6498L180.453 105.044ZM171.838 59.5351L177.761 47.9947H174.359L160.213 75.6498L174.359 103.274H177.761L163.615 75.6498L171.838 59.5351ZM84.7832 108.57L69.7357 137.965L84.7832 167.36H77.7519L62.6906 137.957L77.7519 108.57H84.7832ZM67.9176 137.957L82.0629 110.333H78.654L64.5156 137.957L78.654 165.581H82.0629L67.9176 137.957ZM16.5635 137.957L1.516 167.352H-5.48778L9.55968 137.957L-5.48778 108.57H1.516L16.5635 137.957ZM0.613845 165.581L14.7523 137.957L0.613845 110.333H-2.79508L11.3502 137.957L-2.79508 165.581H0.613845ZM37.8365 137.957L22.7822 167.352H15.7508L30.7983 137.957L15.7508 108.57H22.7822L37.8365 137.957ZM21.8731 165.581L36.0184 137.957L21.8731 110.333H18.4711L32.6164 137.957L18.4711 165.581H21.8731ZM63.517 108.57L48.4696 137.957L63.517 167.352H56.4926L41.4314 137.957L56.4926 108.57H63.517ZM46.6515 137.957L60.7968 110.333H57.3534L43.2495 137.957L57.3879 165.581H60.8312L46.6515 137.957ZM74.1501 167.352H67.1188L52.0644 137.957L67.1188 108.57H74.1501L59.1027 137.957L74.1501 167.352ZM57.2846 137.957L71.4299 110.333H67.9865L53.8825 137.957L68.0209 165.581H71.4643L57.2846 137.957ZM91.0294 96.4241L87.4828 103.289L72.4353 73.8946H42.3335L45.8526 67.0294H75.9475L91.0294 96.4241ZM87.4828 99.7479L89.1838 96.4241L75.0454 68.8001H46.7548L45.0538 72.124H73.3375L87.4828 99.7479ZM74.1501 -40.3368H44.0483L29.0009 -10.9421L25.5024 -17.8073L40.5361 -47.202H70.631L74.1501 -40.3368ZM29.0009 -14.4835L43.1462 -42.0919H71.4299L69.7288 -45.4158H41.4382L27.2998 -17.8073L29.0009 -14.4835ZM169.848 46.2551L154.8 75.6498L169.848 105.044H162.816L147.762 75.6498L162.816 46.2551H169.848ZM163.726 103.274H167.128L152.982 75.6498L167.128 47.9947H163.726L149.58 75.6498L163.726 103.274ZM144.167 -28.1906L129.113 1.20405H99.018L95.4989 -5.66894H125.601L140.648 -35.0636L144.167 -28.1906ZM128.211 -0.56662L142.349 -28.1906L140.648 -31.5145L126.51 -3.89827H98.2192L99.9202 -0.56662H128.211ZM48.4696 34.1167L33.4152 63.5269H3.32032L-0.198787 56.6539H29.903L44.9505 27.2438L48.4696 34.1167ZM32.5131 61.7407L46.6515 34.1167L44.9505 30.7851L30.8052 58.4091H2.52146L4.22248 61.7407H32.5131ZM84.7832 -19.5702H54.6814L39.6339 9.83218L36.1148 2.95142L51.1692 -26.4355H81.2847L84.7832 -19.5702ZM39.6339 6.28307L53.7792 -21.3409H82.0629L80.3619 -24.6648H52.0713L37.9329 2.95142L39.6339 6.28307ZM79.4667 -29.9535H49.3649L34.3174 -0.558853L30.7983 -7.42407L45.8526 -36.8187H75.9475L79.4667 -29.9535ZM34.3174 -4.10019L48.4627 -31.7242H76.7464L75.0454 -35.0481H46.7548L32.6164 -7.42407L34.3174 -4.10019ZM169.848 21.9706H139.746L124.671 51.3652L121.159 44.5L136.206 15.1053H166.301L169.848 21.9706ZM124.671 47.8239L138.816 20.1999H167.1L165.399 16.876H137.136L122.998 44.5L124.671 47.8239ZM36.9343 -47.202L33.4152 -40.3368H3.32032L-9 -64.4116V-78.1343L6.83943 -47.202H36.9343ZM32.5131 -42.0919L34.2141 -45.4158H5.9235L-7.42983 -71.5254V-64.8698L4.22248 -42.0919H32.5131ZM175.164 32.3538H145.063L130.015 61.7485L126.503 54.8833L141.55 25.4731H171.645L175.164 32.3538ZM130.015 58.2071L144.16 30.5832H172.444L170.743 27.2593H142.459L128.314 54.8833L130.015 58.2071ZM132.632 139.751L129.113 146.624H99.018L83.9637 117.191L87.4828 110.318L102.53 139.72L132.632 139.751ZM128.211 144.846L129.912 141.522H101.628L87.4828 113.867L85.7818 117.191L99.9271 144.815L128.211 144.846ZM53.7861 44.5L38.7318 73.8946H8.63686L5.11775 67.0294H35.2196L50.2946 37.627L53.7861 44.5ZM37.8296 72.124L51.968 44.5L50.2946 41.1761L36.1217 68.8001H7.838L9.53902 72.124H37.8296ZM138.851 -38.5739L123.796 -9.17921H93.6808L90.1617 -16.0522H120.264L135.311 -45.4468L138.851 -38.5739ZM122.894 -10.9499L137.067 -38.5739L135.366 -41.9055L121.228 -14.2815H92.9026L94.6105 -10.9499H122.894ZM27.2034 13.3424L12.1491 42.7371H5.11775L20.1652 13.3424L5.11775 -16.0522H12.1491L27.2034 13.3424ZM11.2469 41.0053L25.3853 13.3424L11.2469 -14.2815H7.80357L21.9833 13.3424L7.838 41.0053H11.2469ZM16.5497 13.3424L1.516 42.7371H-5.48778L9.53213 13.3424L-5.48778 -16.0522H1.516L16.5497 13.3424ZM0.613845 41.0053L14.7523 13.3424L0.613845 -14.2815H-2.79508L11.3502 13.3424L-2.79508 41.0053H0.613845ZM127.316 25.4731L123.796 32.3383H93.6808L78.6471 2.95142L82.1662 -3.9138L97.2137 25.4731H127.316ZM122.894 30.5676L124.595 27.2438H96.3115L82.1662 -0.3647L80.4652 2.95142L94.6105 30.5754L122.894 30.5676ZM159.215 46.2396L144.167 75.6498L159.215 105.044H152.218L137.136 75.6498L152.218 46.2551L159.215 46.2396ZM153.086 103.258H156.529L142.349 75.6498L156.494 47.9947H153.051L138.947 75.6498L153.086 103.258ZM37.8365 13.3424L22.7822 42.7371H15.7508L30.7983 13.3424L15.7508 -16.0522H22.7822L37.8365 13.3424ZM21.8731 41.0053L36.0184 13.3424L21.8731 -14.2815H18.4711L32.6164 13.3424L18.4711 41.0053H21.8731ZM43.153 23.7723L28.0987 53.1281H-1.99622L-5.48778 46.2551H24.5865L39.6339 16.8605L43.153 23.7723ZM27.1965 51.3497L41.3418 23.7335L39.6408 20.4018L25.5024 47.9947H-2.79508L-1.09406 51.3186L27.1965 51.3497ZM63.517 -16.0522L48.4696 13.3424L63.517 42.7371H56.4926L41.4314 13.3424L56.4926 -16.0522H63.517ZM46.6515 13.3424L60.7968 -14.2815H57.3534L43.2495 13.3424L57.3879 41.0053H60.8312L46.6515 13.3424ZM84.7832 -16.0522L69.7357 13.3424L84.7832 42.7371H77.7519L62.6906 13.3424L77.745 -16.0522H84.7832ZM76.4641 -3.26145L82.0974 -14.266H78.6885L64.5156 13.3424L78.654 41.0053H82.0629L67.9176 13.3424L76.4641 -3.26145ZM122.033 35.8874L118.473 42.7371H88.3781L73.3375 13.3424L76.8497 6.47723L91.8972 35.8719L122.033 35.8874ZM117.578 41.0053L119.279 37.6814H90.995L76.8497 10.0186L75.1487 13.3424L89.2871 41.0053H117.578ZM74.1501 42.7759H67.1188L52.0644 13.3424L67.1188 -16.0522H74.1501L59.1027 13.3424L74.1501 42.7759ZM57.2846 13.3424L71.4299 -14.2815H67.9865L53.8825 13.3424L68.0209 41.0053H71.4643L57.2846 13.3424ZM122.02 160.487L118.473 167.352H88.3781L73.3306 137.957L76.8428 131.092L91.8903 160.487H122.02ZM117.598 165.581L119.299 162.257H90.995L76.8497 134.633L75.1487 137.957L89.2871 165.581H117.598ZM183.986 111.855V125.593L178.787 115.435H148.664L152.218 108.57H182.32L183.986 111.855ZM182.416 118.985V112.329L181.397 110.333H153.086L151.385 113.657H179.675L182.416 118.985ZM183.986 91.0888V104.827L169.035 75.6498L172.547 68.7845L183.986 91.0888ZM182.416 98.2103V91.5625L172.568 72.3259L170.867 75.6498L182.416 98.2103ZM183.986 70.3145V84.0527L174.345 65.2665L177.857 58.4013L183.986 70.3145ZM182.416 77.4437V70.796L177.864 61.9737L176.163 65.2976L182.416 77.4437ZM183.986 28.7814V42.5585L182.45 39.5219L168.133 11.5873H138.031L141.55 4.72208H171.645L183.986 28.7814ZM182.416 35.9029V29.2552L170.743 6.49275H142.459L140.751 9.81664H169.035L182.416 35.9029ZM183.986 46.4803V63.2862L179.689 54.8833L183.986 46.4803ZM182.416 56.6772V53.0893L181.5 54.8833L182.416 56.6772ZM183.986 8.00714V21.7454L173.45 1.20405H143.348L146.867 -5.66894H176.962L183.986 8.00714ZM182.416 15.1364V8.48864L176.08 -3.89827H147.776L146.068 -0.56662H174.359L182.416 15.1364ZM175.185 156.969H145.063L138.396 170H131.365L141.55 150.103H171.645L175.185 156.969ZM137.508 168.229L144.16 155.167H172.444L170.743 151.843H142.459L134.085 168.198L137.508 168.229ZM169.875 146.585H139.746L127.763 170H120.732L136.234 139.712H166.329L169.875 146.585ZM126.882 168.229L138.871 144.815H167.155L165.454 141.491H137.136L123.452 168.229H126.882ZM183.966 132.645V146.383L173.45 125.842H143.348L146.867 118.969H176.962L183.966 132.645ZM182.395 139.774V133.119L176.06 120.74H147.776L146.068 124.071H174.359L182.395 139.774ZM180.453 167.352H150.379L149.002 170H141.998L146.867 160.487H176.962L180.453 167.352ZM148.086 168.229L149.463 165.581H177.747L176.046 162.257H147.776L144.718 168.229H148.086ZM183.931 153.396V167.165L182.395 164.121L168.099 136.202H138.031L141.55 129.329H171.645L183.931 153.396ZM182.361 160.518V153.87L170.743 131.092H142.459L140.751 134.424H169.035L182.361 160.518ZM183.966 -33.5492V-19.811L169.035 -48.9649L172.547 -55.8301L183.966 -33.5492ZM182.395 -26.4277V-33.0755L172.547 -52.3121L170.846 -48.9882L182.395 -26.4277ZM54.2338 -81L38.7318 -50.7123H8.63686L5.11775 -57.5852H35.2196L47.2024 -81H54.2338ZM37.8296 -52.4907L51.5135 -79.2293H48.1115L36.1217 -55.8146H7.838L9.53902 -52.4907H37.8296ZM128.665 -81L124.699 -73.2339L120.732 -81H128.665ZM124.671 -76.7908L125.917 -79.2293H123.425L124.671 -76.7908ZM139.278 -81L130.015 -62.8662L126.503 -69.7314L132.246 -81H139.278ZM130.015 -66.4075L136.585 -79.2293H133.142L128.28 -69.7314L130.015 -66.4075ZM32.9676 -81L28.0987 -71.4865H-1.99622L-5.48778 -78.3595H24.5865L25.9638 -81H32.9676ZM27.1965 -73.2339L30.2473 -79.206H26.8797L25.5024 -76.5656H-2.79508L-1.09406 -73.2339H27.1965ZM43.6007 -81L33.4152 -61.1033H3.32032L-0.198787 -67.9685H29.903L36.5693 -81H43.6007ZM32.5131 -62.874L40.8804 -79.2293H37.4784L30.8052 -66.1668H2.52146L4.22248 -62.874H32.5131ZM149.938 -81L135.332 -52.4752L131.813 -59.3481L142.9 -81H149.938ZM135.332 -56.0243L147.218 -79.2293H143.775L133.624 -59.3481L135.332 -56.0243ZM54.2338 170H46.3003L50.267 162.234L54.2338 170ZM49.0205 168.229H51.5135L50.2946 165.783L49.0205 168.229ZM184 -54.2924V-40.5387L174.359 -59.3248L177.871 -66.1901L184 -54.2924ZM182.43 -47.1709V-53.8187L177.898 -62.672L176.197 -59.3481L182.43 -47.1709ZM184 -78.1343V-61.3285L179.703 -69.7314L184 -78.1343ZM182.43 -67.9374V-71.5176L181.514 -69.7314L182.43 -67.9374ZM184 -12.7594V0.978828L178.766 -9.17921H148.664L152.218 -16.0522H182.32L184 -12.7594ZM182.395 -5.59128V-12.2468L181.376 -14.2427H153.086L151.385 -10.911H179.675L182.395 -5.59128ZM149.463 -17.8073L134.429 11.5873H104.335L100.815 4.72208H130.917L145.965 -24.6726L149.463 -17.8073ZM133.527 9.81664L147.666 -17.8073L145.965 -21.1235L131.819 6.49275H103.536L105.237 9.81664H133.527ZM96.3391 -38.5739L92.82 -31.7086L77.7519 -61.1033H47.6501L51.1692 -67.9685H81.2847L96.3391 -38.5739ZM92.82 -35.25L94.521 -38.5739L80.3619 -66.1668H52.0713L50.3703 -62.8429H78.654L92.82 -35.25ZM101.656 -48.9649L98.1159 -42.0919L83.0684 -71.4865H52.9666L56.4926 -78.3595H86.5875L101.656 -48.9649ZM98.1365 -45.6332L99.8375 -48.9649L85.6785 -76.5889H57.3879L55.6869 -73.2572H83.9706L98.1365 -45.6332ZM112.275 -48.9649L97.2137 -19.5702H90.1824L105.23 -48.9727L90.1824 -78.3595H97.2137L112.275 -48.9649ZM96.3115 -21.3409L110.45 -48.9649L96.3115 -76.5889H92.9026L107.048 -48.9649L92.9026 -21.3409H96.3115ZM31.6178 -36.8187L28.0987 -29.9535H-1.99622L-9 -43.6451V-57.3678L1.516 -36.8187H31.6178ZM27.1965 -31.7242L28.8976 -35.0481H0.613845L-7.42983 -50.7511V-44.1033L-1.09406 -31.7242H27.1965ZM91.0019 -28.1906L87.4828 -21.3254L72.4353 -50.72H42.3335L45.8526 -57.5852H75.9475L91.0019 -28.1906ZM87.4828 -24.8667L89.1838 -28.1906L75.0454 -55.8146H46.7548L45.0538 -52.4907H73.3375L87.4828 -24.8667ZM122.901 -48.9416L107.847 -19.5702H100.815L115.87 -48.9727L100.815 -78.3595H107.847L122.901 -48.9416ZM106.945 -21.3409L121.083 -48.9649L106.945 -76.5889H103.536L117.681 -48.9649L103.536 -21.3409H106.945ZM26.3013 -26.4355L22.7822 -19.5702H-7.31276L-9 -22.8631V-36.5935L-3.80054 -26.4355H26.3013ZM21.88 -21.3409L23.581 -24.6648H-4.70958L-7.42983 -29.9846V-23.3368L-6.4106 -21.3409H21.88ZM169.848 -78.3595L154.8 -48.9649L169.848 -19.5702H162.816L147.762 -48.9649L162.816 -78.3595H169.848ZM152.982 -48.9649L167.128 -76.5889H163.726L149.58 -48.9649L163.726 -21.3409H167.128L152.982 -48.9649ZM180.453 -19.5702H173.45L158.416 -48.9649L173.45 -78.3595H180.453L165.433 -48.9649L180.453 -19.5702ZM171.866 -65.0795L177.761 -76.5889H174.359L160.213 -48.9649L174.359 -21.3409H177.761L163.615 -48.9649L171.866 -65.0795ZM133.534 -48.9649L118.473 -19.5702H111.449L126.503 -48.9727L111.449 -78.3595H118.473L133.534 -48.9649ZM117.578 -21.3409L131.716 -48.9649L117.578 -76.5889H114.169L128.314 -48.9649L114.169 -21.3409H117.578ZM159.215 -78.3595L144.167 -48.9649L159.215 -19.5702H152.218L137.136 -48.9649L152.218 -78.3595H159.215ZM142.349 -48.9649L156.494 -76.5889H153.051L138.947 -48.9649L153.086 -21.3409H156.529L142.349 -48.9649ZM-4.70269 158.731L-9 167.127V150.321L-4.70269 158.731ZM-7.45738 160.518L-6.54144 158.731L-7.45738 156.937V160.518ZM0.613845 148.34L-2.89838 155.213L-9 143.292V129.539L0.613845 148.34ZM-2.50583 150.895L-1.19736 148.34L-7.3954 136.163V142.819L-2.86394 151.672L-2.50583 150.895ZM5.93038 137.957L2.41816 144.83L-9 122.549V108.788L5.93038 137.957ZM2.41816 141.281L4.15361 137.957L-7.3954 115.397V122.052L2.41816 141.281ZM26.3013 98.1792L22.7822 105.044H-7.31276L-9 101.752V88.0212L-3.80054 98.1792H26.3013ZM21.88 103.274L23.581 99.9499H-4.70958L-7.42983 94.6301V101.278L-6.4106 103.274H21.88ZM48.4696 158.731L42.7192 170H35.6672L44.9505 151.858L48.4696 158.731ZM41.7895 168.229L46.6515 158.731L44.9505 155.4L38.3874 168.229H41.7895ZM43.1668 148.34L32.0654 170H25.0272L39.6339 141.475L43.1668 148.34ZM31.1564 168.229L41.3418 148.34L39.6408 145.016L27.7544 168.229H31.1564ZM0.613845 23.7257L-2.89838 30.5987L-9 18.6778V4.93954L0.613845 23.7257ZM-2.50583 26.2497L-1.19736 23.6946L-7.3954 11.5252V18.173L-2.89838 27.0263L-2.50583 26.2497ZM31.6178 87.7649L28.0987 94.6301H-1.99622L-9 80.9851V67.2469L1.516 87.7959L31.6178 87.7649ZM27.1965 92.8594L28.8976 89.5355H0.613845L-7.42983 73.8558V80.5114L-1.09406 92.8905L27.1965 92.8594ZM5.93038 13.3424L2.41816 20.2154L-9 -2.08877V-15.827L5.93038 13.3424ZM2.41816 16.6741L4.15361 13.3424L-7.3954 -9.17921V-2.5625L2.41816 16.6741ZM-4.70269 34.1167L-9 42.5585V25.7138L-4.70269 34.1167ZM-7.45738 35.9029L-6.54144 34.1167L-7.45738 32.3228V35.9029ZM36.9343 77.4127L33.4152 84.2779H3.32032L-9 60.203V46.4803L6.83943 77.4127H36.9343ZM32.5131 82.5072L34.2141 79.1833H5.9235L-7.42983 53.0893V59.7448L4.22248 82.5072H32.5131Z" fill="url(#paint0_radial)"/>
<defs>
<radialGradient id="paint0_radial" cx="0" cy="0" r="1" gradientUnits="userSpaceOnUse" gradientTransform="translate(87.5 24.4691) rotate(90) scale(99.3371 76.3827)">
<stop stop-color="#08367C" stop-opacity="0.04"/>
<stop offset="1" stop-color="#08367D" stop-opacity="0.81"/>
</radialGradient>
</defs>
</svg>
