<svg width="289" height="164" viewBox="0 0 289 164" fill="none" xmlns="http://www.w3.org/2000/svg">
<path fill-rule="evenodd" clip-rule="evenodd" d="M4.99951 0C2.23809 0 -0.000488281 2.23857 -0.000488281 5V159C-0.000488281 161.761 2.23808 164 4.99951 164H284C286.761 164 289 161.761 289 159V5C289 2.23858 286.761 0 284 0H166C166 7.42606 163.05 14.548 157.799 19.799C152.547 25.05 145.426 28 138 28C130.573 28 123.452 25.05 118.201 19.799C112.95 14.548 110 7.42607 110 4.22788e-06L138 0H4.99951Z" fill="white"/>
</svg>
