<svg width="280" height="138" viewBox="0 0 280 138" fill="none" xmlns="http://www.w3.org/2000/svg">
<path fill-rule="evenodd" clip-rule="evenodd" d="M5 0.900391C2.23858 0.900391 0 3.13897 0 5.90039V132.9C0 135.662 2.23857 137.9 5 137.9H275C277.761 137.9 280 135.662 280 132.9V5.90039C280 3.13897 277.761 0.900391 275 0.900391H5ZM155.41 17.2283C159.629 13.0087 162 7.28573 162 1.31836H139.5L117 1.31836C117 7.28573 119.371 13.0087 123.59 17.2283C127.81 21.4478 133.533 23.8184 139.5 23.8184C145.467 23.8184 151.19 21.4478 155.41 17.2283Z" fill="white"/>
</svg>
