<svg width="92" height="53" viewBox="0 0 92 53" fill="none" xmlns="http://www.w3.org/2000/svg">
<path d="M47.3672 7.42102V22.8815H48.7356V15.7697H51.9986L57.3669 22.8815H59.0511L53.0512 14.9451L58.5248 7.52409L58.63 7.42102H57.0511L51.9986 14.4298H48.7356V7.42102H47.3672Z" fill="black"/>
<path d="M60.5244 7.42102V22.8815H61.8928V15.8727H70.1031V22.8815H71.4715V7.42102H70.1031V14.4298H61.8928V7.42102H60.5244Z" fill="black"/>
<path d="M78.5241 14.2237C75.2611 14.2237 73.4717 15.7697 73.4717 18.5526C73.4717 21.2324 75.3664 22.9846 78.4189 22.9846C80.6293 22.9846 82.3135 22.057 83.2608 20.3048V22.8815H84.6292V13.0899C84.6292 9.27632 82.8398 7.31799 79.3662 7.31799C77.261 7.31799 75.3663 8.14255 73.8927 9.48246L74.6295 10.6162C75.7874 9.37939 77.4716 8.6579 79.261 8.6579C81.8925 8.6579 83.1556 10.2039 83.1556 12.9868V14.2237H78.5241ZM83.0503 15.4605V18.2434C82.3135 20.5109 80.7346 21.6447 78.5241 21.6447C76.2084 21.6447 74.8401 20.4078 74.8401 18.4495C74.8401 16.3881 76.1032 15.3574 78.5241 15.3574H83.0503V15.4605Z" fill="black"/>
<path d="M45.4724 12.3683C45.4724 9.68851 43.262 7.52405 40.5252 7.52405H38.7358C35.999 7.52405 33.7886 9.68851 33.7886 12.3683V18.0372C33.7886 20.717 35.999 22.8814 38.7358 22.8814H40.5252C43.262 22.8814 45.4724 20.717 45.4724 18.0372V12.3683ZM44.104 18.0372C44.104 19.9955 42.5251 21.5415 40.5252 21.5415H38.7358C36.7358 21.5415 35.157 19.9955 35.157 18.0372V12.3683C35.157 10.41 36.7358 8.86395 38.7358 8.86395H40.5252C42.5251 8.86395 44.104 10.41 44.104 12.3683V18.0372Z" fill="black"/>
<path d="M85.8921 0H17.1574C13.6838 0 10.947 2.78288 10.947 6.08111V7.52409H9.68391C4.31566 7.52409 0 11.853 0 17.1096V34.9406C0 40.1972 4.31566 44.423 9.68391 44.423H13.4733C18.8415 44.423 23.1572 40.1972 23.1572 34.9406V17.1096C23.1572 11.853 18.8415 7.62716 13.4733 7.62716H12.2101V6.08111C12.2101 3.4013 14.4206 1.23684 17.1574 1.23684H85.7868C88.5236 1.23684 90.734 3.4013 90.734 6.08111V45.9691C90.734 48.6489 88.5236 50.8134 85.7868 50.8134H26.315V52.1533H85.7868C89.2604 52.1533 91.9972 49.3704 91.9972 46.0721V6.08111C92.1024 2.78288 89.2604 0 85.8921 0ZM9.68391 8.86399H10.947V10.8223V21.8508H1.36838V17.1096C1.36838 12.5745 5.05248 8.86399 9.68391 8.86399ZM13.5785 43.1862H9.68391C5.05248 43.1862 1.26312 39.4757 1.26312 34.9406V23.0876H21.8941V34.9406C21.9993 39.4757 18.21 43.1862 13.5785 43.1862ZM21.9993 17.1096V21.8508H12.3154V10.8223V8.86399H13.5785C18.21 8.86399 21.9993 12.5745 21.9993 17.1096Z" fill="black"/>
<path d="M26.3149 44.5262H27.7886V36.2806C27.7886 32.6732 29.999 30.3026 33.7884 30.3026C36.9462 30.3026 38.8409 32.1578 38.8409 35.5591V44.4231H40.3145V35.456C40.3145 31.1271 37.7883 28.9626 33.8937 28.9626C30.9464 28.9626 28.7359 30.3026 27.6833 32.3639V29.0657H26.3149V44.5262Z" fill="black"/>
<path d="M44.9458 25.4583H43.4722V44.5261H44.9458V25.4583Z" fill="black"/>
<path d="M49.5776 29.1687H48.104V44.5261H49.5776V29.1687Z" fill="black"/>
<path d="M54.314 32.467V29.1688H52.8403V44.5262H54.314V36.2806C54.314 32.6732 56.5244 30.3026 60.3138 30.3026C63.4716 30.3026 65.3662 32.1578 65.3662 35.5591V44.4231H66.8399V35.456C66.8399 31.1271 64.3136 28.9626 60.419 28.9626C57.577 28.9626 55.3666 30.3026 54.314 32.467Z" fill="black"/>
<path d="M69.3662 36.7959C69.3662 41.331 72.7345 44.6292 77.4712 44.6292C79.8922 44.6292 81.9974 43.8047 83.3658 42.1556L82.5237 41.2279C81.3658 42.6709 79.4712 43.3924 77.4712 43.3924C73.6819 43.3924 70.9451 40.9187 70.8399 37.2082H84.3131C84.3131 37.1051 84.3131 36.899 84.3131 36.7959C84.3131 32.2609 81.1553 29.0657 76.8397 29.0657C72.524 28.9626 69.3662 32.2609 69.3662 36.7959ZM76.8397 30.3025C80.208 30.3025 82.629 32.6731 82.8395 36.0744H70.8399C71.0504 32.6731 73.4713 30.3025 76.8397 30.3025Z" fill="black"/>
<path d="M49.5776 25.4583H48.104V27.2104H49.5776V25.4583Z" fill="black"/>
<path d="M29.0516 19.1709C28.8411 18.6556 28.4201 18.4494 27.8938 18.4494C26.9464 18.4494 26.5254 19.1709 26.5254 20.4077V22.8814H31.8936V20.3047C31.8936 18.9648 31.2621 18.2433 30.42 18.2433C29.6832 18.2433 29.2621 18.5525 29.0516 19.1709ZM28.7358 21.6446H27.3675V20.5108C27.3675 19.9955 27.578 19.6863 27.999 19.6863C28.4201 19.6863 28.6306 19.9955 28.6306 20.5108V21.6446H28.7358ZM30.9463 20.3047V21.6446H29.5779V20.3047C29.5779 19.6863 29.7884 19.4801 30.2095 19.4801C30.7358 19.4801 30.9463 19.6863 30.9463 20.3047Z" fill="black"/>
<path d="M29.1572 17.6249C30.8413 17.6249 31.9992 16.388 31.9992 14.7389C31.9992 13.8113 31.6834 13.0898 31.0518 12.5745L30.315 13.399C30.7361 13.7082 30.9466 14.2236 30.9466 14.7389C30.9466 15.7696 30.2098 16.388 29.2624 16.388C28.3151 16.388 27.5783 15.6666 27.5783 14.7389C27.5783 14.2236 27.7888 13.8113 28.2098 13.399L27.3677 12.5745C26.7362 13.0898 26.4204 13.8113 26.4204 14.7389C26.4204 16.388 27.5783 17.6249 29.1572 17.6249Z" fill="black"/>
<path d="M26.4204 7.73027V11.75H31.8939V7.6272H30.8413V10.5131H29.5782V8.03948H28.6309V10.5131H27.473V7.73027H26.4204Z" fill="black"/>
</svg>
