<svg width="131" height="74" viewBox="0 0 131 74" fill="none" xmlns="http://www.w3.org/2000/svg">
<path d="M67.2085 10.5295V32.4663H69.1501V22.3754H73.78L81.397 32.4663H83.7867L75.2736 21.2054L83.0399 10.6758L83.1893 10.5295H80.949L73.78 20.4742H69.1501V10.5295H67.2085Z" fill="white"/>
<path d="M85.8779 10.5295V32.4663H87.8195V22.5216H99.4691V32.4663H101.411V10.5295H99.4691V20.4742H87.8195V10.5295H85.8779Z" fill="white"/>
<path d="M111.417 20.1817C106.787 20.1817 104.248 22.3754 104.248 26.324C104.248 30.1264 106.936 32.6126 111.268 32.6126C114.404 32.6126 116.794 31.2963 118.138 28.8102V32.4663H120.079V18.573C120.079 13.162 117.54 10.3833 112.612 10.3833C109.625 10.3833 106.936 11.5533 104.845 13.4544L105.891 15.0631C107.534 13.3082 109.923 12.2845 112.462 12.2845C116.196 12.2845 117.988 14.4782 117.988 18.4268V20.1817H111.417ZM117.839 21.9367V25.8853C116.794 29.1027 114.553 30.7114 111.417 30.7114C108.131 30.7114 106.19 28.9564 106.19 26.1778C106.19 23.2529 107.982 21.7904 111.417 21.7904H117.839V21.9367Z" fill="white"/>
<path d="M64.5205 17.5495C64.5205 13.7472 61.3841 10.676 57.501 10.676H54.962C51.0788 10.676 47.9424 13.7472 47.9424 17.5495V25.593C47.9424 29.3954 51.0788 32.4665 54.962 32.4665H57.501C61.3841 32.4665 64.5205 29.3954 64.5205 25.593V17.5495ZM62.5789 25.593C62.5789 28.3717 60.3386 30.5654 57.501 30.5654H54.962C52.1243 30.5654 49.884 28.3717 49.884 25.593V17.5495C49.884 14.7709 52.1243 12.5772 54.962 12.5772H57.501C60.3386 12.5772 62.5789 14.7709 62.5789 17.5495V25.593Z" fill="white"/>
<path d="M121.872 0H24.3445C19.4159 0 15.5327 3.94862 15.5327 8.62846V10.6759H13.7405C6.12346 10.6759 0 16.8182 0 24.2767V49.5771C0 57.0356 6.12346 63.0316 13.7405 63.0316H19.1172C26.7341 63.0316 32.8576 57.0356 32.8576 49.5771V24.2767C32.8576 16.8182 26.7341 10.8221 19.1172 10.8221H17.3249V8.62846C17.3249 4.82609 20.4613 1.75494 24.3445 1.75494H121.723C125.606 1.75494 128.742 4.82609 128.742 8.62846V65.2253C128.742 69.0277 125.606 72.0988 121.723 72.0988H37.3382V74H121.723C126.651 74 130.534 70.0514 130.534 65.3715V8.62846C130.684 3.94862 126.651 0 121.872 0ZM13.7405 12.5771H15.5327V15.3557V31.004H1.94159V24.2767C1.94159 17.8419 7.16893 12.5771 13.7405 12.5771ZM19.2665 61.2767H13.7405C7.16893 61.2767 1.79223 56.0119 1.79223 49.5771V32.7589H31.0654V49.5771C31.2147 56.0119 25.838 61.2767 19.2665 61.2767ZM31.2147 24.2767V31.004H17.4743V15.3557V12.5771H19.2665C25.838 12.5771 31.2147 17.8419 31.2147 24.2767Z" fill="white"/>
<path d="M37.3384 63.178H39.4293V51.4784C39.4293 46.3598 42.5657 42.9962 47.9424 42.9962C52.423 42.9962 55.1114 45.6286 55.1114 50.4547V63.0317H57.2023V50.3084C57.2023 44.1661 53.6178 41.095 48.0918 41.095C43.9099 41.095 40.7735 42.9962 39.28 45.9211V41.2412H37.3384V63.178Z" fill="white"/>
<path d="M63.7735 36.1226H61.6826V63.1779H63.7735V36.1226Z" fill="white"/>
<path d="M70.3453 41.3872H68.2544V63.1777H70.3453V41.3872Z" fill="white"/>
<path d="M77.066 46.0673V41.3875H74.9751V63.178H77.066V51.4784C77.066 46.3598 80.2024 42.9962 85.5791 42.9962C90.0597 42.9962 92.748 45.6286 92.748 50.4547V63.0317H94.839V50.3084C94.839 44.1661 91.2545 41.095 85.7285 41.095C81.696 41.095 78.5596 42.9962 77.066 46.0673Z" fill="white"/>
<path d="M98.4233 52.2095C98.4233 58.6443 103.203 63.3241 109.923 63.3241C113.359 63.3241 116.346 62.1542 118.287 59.8143L117.092 58.498C115.45 60.5455 112.761 61.5692 109.923 61.5692C104.547 61.5692 100.664 58.0593 100.514 52.7945H119.631C119.631 52.6482 119.631 52.3558 119.631 52.2095C119.631 45.7747 115.151 41.2411 109.027 41.2411C102.904 41.0949 98.4233 45.7747 98.4233 52.2095ZM109.027 42.9961C113.807 42.9961 117.242 46.3597 117.54 51.1858H100.514C100.813 46.3597 104.248 42.9961 109.027 42.9961Z" fill="white"/>
<path d="M70.3453 36.1226H68.2544V38.6087H70.3453V36.1226Z" fill="white"/>
<path d="M41.2212 27.2017C40.9225 26.4705 40.3251 26.178 39.5783 26.178C38.2341 26.178 37.6367 27.2017 37.6367 28.9566V32.4665H45.2537V28.8104C45.2537 26.9092 44.3576 25.8855 43.1628 25.8855C42.1173 25.8855 41.5199 26.3242 41.2212 27.2017ZM40.7731 30.7116H38.8315V29.1029C38.8315 28.3717 39.1302 27.9329 39.7277 27.9329C40.3251 27.9329 40.6238 28.3717 40.6238 29.1029V30.7116H40.7731ZM43.9095 28.8104V30.7116H41.9679V28.8104C41.9679 27.9329 42.2667 27.6404 42.8641 27.6404C43.6108 27.6404 43.9095 27.9329 43.9095 28.8104Z" fill="white"/>
<path d="M41.3705 25.0078C43.7601 25.0078 45.403 23.2529 45.403 20.9129C45.403 19.5967 44.9549 18.573 44.0588 17.8418L43.0133 19.0118C43.6108 19.4505 43.9095 20.1817 43.9095 20.9129C43.9095 22.3754 42.864 23.2529 41.5198 23.2529C40.1756 23.2529 39.1302 22.2292 39.1302 20.9129C39.1302 20.1817 39.4289 19.5967 40.0263 19.0118L38.8315 17.8418C37.9354 18.573 37.4873 19.5967 37.4873 20.9129C37.4873 23.2529 39.1302 25.0078 41.3705 25.0078Z" fill="white"/>
<path d="M37.4873 10.9683V16.6718H45.2536V10.822H43.7601V14.9169H41.9679V11.407H40.6237V14.9169H38.9808V10.9683H37.4873Z" fill="white"/>
</svg>
