<svg width="12" height="14" viewBox="0 0 12 14" fill="none" xmlns="http://www.w3.org/2000/svg">
<path d="M11.4545 5.72727C11.4545 10.1818 5.72727 14 5.72727 14C5.72727 14 0 10.1818 0 5.72727C2.26344e-08 4.20831 0.603407 2.75155 1.67748 1.67748C2.75155 0.603407 4.20831 0 5.72727 0C7.24624 0 8.70299 0.603407 9.77707 1.67748C10.8511 2.75155 11.4545 4.20831 11.4545 5.72727Z" fill="#C1C1C1"/>
<path d="M5.72745 7.63654C6.78181 7.63654 7.63654 6.78181 7.63654 5.72745C7.63654 4.67309 6.78181 3.81836 5.72745 3.81836C4.67309 3.81836 3.81836 4.67309 3.81836 5.72745C3.81836 6.78181 4.67309 7.63654 5.72745 7.63654Z" fill="white"/>
</svg>
