<svg width="598" height="388" viewBox="0 0 598 388" fill="none" xmlns="http://www.w3.org/2000/svg">
<path fill-rule="evenodd" clip-rule="evenodd" d="M268.004 0H5C2.2386 0 0 2.2386 0 5V383C0 385.761 2.2386 388 5 388H593C595.761 388 598 385.761 598 383V5C598 2.2386 595.761 0 593 0H330.996C330.729 17.1664 316.73 31 299.5 31C282.27 31 268.271 17.1664 268.004 0Z" fill="white"/>
<path fill-rule="evenodd" clip-rule="evenodd" d="M259.39 16H21C18.2386 16 16 18.2386 16 21V367C16 369.761 18.2386 372 21 372H577C579.761 372 582 369.761 582 367V21C582 18.2386 579.761 16 577 16H338.61C338.492 16.3353 338.369 16.6687 338.242 17H577C579.209 17 581 18.7909 581 21V367C581 369.209 579.209 371 577 371H21C18.7909 371 17 369.209 17 367V21C17 18.7909 18.7909 17 21 17H259.758C259.631 16.6687 259.508 16.3353 259.39 16Z" fill="#EBEBEB"/>
</svg>
