<svg width="354" height="498" viewBox="0 0 354 498" fill="none" xmlns="http://www.w3.org/2000/svg">
<path fill-rule="evenodd" clip-rule="evenodd" d="M146.004 0H5C2.2386 0 0 2.2386 0 5V493C0 495.761 2.2386 498 5 498H349C351.761 498 354 495.761 354 493V5C354 2.2386 351.761 0 349 0H208.996C208.729 17.1664 194.73 31 177.5 31C160.27 31 146.271 17.1664 146.004 0Z" fill="white"/>
<path fill-rule="evenodd" clip-rule="evenodd" d="M137.051 15H21C18.2386 15 16 17.2386 16 20V478C16 480.761 18.2386 483 21 483H334C336.761 483 339 480.761 339 478V20C339 17.2386 336.761 15 334 15H216.949C216.84 15.3352 216.727 15.6686 216.61 16H334C336.209 16 338 17.7909 338 20V478C338 480.209 336.209 482 334 482H21C18.7909 482 17 480.209 17 478V20C17 17.7909 18.7909 16 21 16H137.39C137.273 15.6686 137.16 15.3352 137.051 15Z" fill="#EBEBEB"/>
</svg>
