<svg width="280" height="394" viewBox="0 0 280 394" fill="none" xmlns="http://www.w3.org/2000/svg">
<path fill-rule="evenodd" clip-rule="evenodd" d="M115.483 0H5C2.2386 0 0 2.2386 0 5V388.898C0 391.659 2.2386 393.898 5 393.898H275C277.761 393.898 280 391.659 280 388.898V5C280 2.2386 277.761 0 275 0H165.307C165.096 13.5781 154.023 24.52 140.395 24.52C126.767 24.52 115.694 13.5781 115.483 0Z" fill="white"/>
<path fill-rule="evenodd" clip-rule="evenodd" d="M107.32 12H17C14.2386 12 12 14.2386 12 17V377.169C12 379.931 14.2386 382.169 17 382.169H262.48C265.242 382.169 267.48 379.931 267.48 377.169V17C267.48 14.2386 265.242 12 262.48 12H170.68C170.574 12.3357 170.462 12.669 170.346 13H262.48C264.689 13 266.48 14.7909 266.48 17V377.169C266.48 379.379 264.689 381.169 262.48 381.169H17C14.7908 381.169 13 379.379 13 377.169V17C13 14.7909 14.7909 13 17 13H107.654C107.537 12.669 107.426 12.3357 107.32 12Z" fill="#EBEBEB"/>
</svg>
