<svg width="17" height="17" viewBox="0 0 17 17" fill="none" xmlns="http://www.w3.org/2000/svg">
<path d="M16.9995 12.7278V15.287C17.0004 15.5245 16.9517 15.7597 16.8563 15.9774C16.7609 16.1951 16.6211 16.3905 16.4457 16.5511C16.2702 16.7117 16.0632 16.834 15.8376 16.9101C15.6121 16.9862 15.3732 17.0145 15.1361 16.9931C12.5059 16.7078 9.97937 15.8109 7.75957 14.3742C5.69433 13.0644 3.94337 11.3169 2.63104 9.2558C1.18648 7.03034 0.287505 4.49657 0.0069378 1.85976C-0.0144221 1.62386 0.0136689 1.3861 0.089422 1.16163C0.165175 0.937161 0.286931 0.730892 0.446937 0.555956C0.606943 0.38102 0.801693 0.241251 1.01879 0.145548C1.23589 0.0498457 1.47057 0.000305764 1.7079 8.27063e-05H4.27217C4.68699 -0.0039919 5.08913 0.142611 5.40366 0.412566C5.71818 0.682521 5.92362 1.05741 5.98168 1.46735C6.08991 2.28635 6.29063 3.09049 6.58001 3.86445C6.69501 4.16978 6.7199 4.50162 6.65173 4.82063C6.58355 5.13965 6.42518 5.43248 6.19537 5.66441L5.10983 6.7478C6.32662 8.88348 8.09844 10.6518 10.2384 11.8662L11.3239 10.7828C11.5563 10.5534 11.8497 10.3954 12.1694 10.3273C12.489 10.2593 12.8215 10.2841 13.1274 10.3989C13.9029 10.6877 14.7087 10.888 15.5293 10.9961C15.9445 11.0545 16.3237 11.2632 16.5948 11.5825C16.8658 11.9018 17.0099 12.3094 16.9995 12.7278Z" fill="white"/>
</svg>
