<svg width="111" height="126" viewBox="0 0 111 126" fill="none" xmlns="http://www.w3.org/2000/svg">
<path d="M35.8473 116.764L51.3505 92.6776L30.9127 79.3981L15.4096 103.484L27.9603 105.901L35.8473 116.764Z" fill="url(#paint0_linear)"/>
<path d="M29.069 104.16L18.5637 102.133L31.4863 82.0616L48.7015 93.248L35.7518 113.365L29.069 104.16Z" stroke="#3D3D3C" stroke-miterlimit="10"/>
<path d="M57.5896 120.099L50.0183 92.473L73.4917 85.9288L81.0679 113.555L68.365 112.098L57.5896 120.099Z" fill="url(#paint1_linear)"/>
<path d="M52.3741 93.8113L72.1506 88.2989L78.4634 111.321L67.8333 110.106L58.6989 116.885L52.3741 93.8113Z" stroke="#3D3D3C" stroke-miterlimit="10"/>
<path d="M100.707 61.3446L96.5626 65.153L98.3149 70.5022L93.477 73.361L94.074 78.9624L88.748 80.7426L88.1709 86.3503L82.6001 86.9754L80.876 92.345L75.2995 91.8001L72.5109 96.696L67.168 94.997L63.4259 99.1982L58.5525 96.4175L54.0238 99.7428L49.8337 95.9959L44.7183 98.3154L41.3902 93.7799L35.9116 94.978L33.6008 89.8483L27.9943 89.8678L26.8013 84.3612L21.3136 83.2039L21.2824 77.5702L16.1509 75.2983L17.2802 69.7805L12.7376 66.4866L14.9861 61.3216L11.2274 57.1443L14.5024 52.5661L11.6895 47.6906L15.8336 43.8872L14.0821 38.5329L18.9192 35.6792L18.323 30.0727L23.6432 28.2968L24.2253 22.6899L29.7969 22.0597L31.5152 16.6944L37.0967 17.2401L39.8853 12.3442L45.2282 14.0432L48.971 9.83691L53.8386 12.6219L58.3724 9.29744L62.5582 13.0385L67.6779 10.7248L71.0017 15.2545L76.4853 14.0572L78.7953 19.1919L84.4018 19.1724L85.5949 24.679L91.0783 25.8305L91.1138 31.47L96.2411 33.7361L95.111 39.2589L99.6593 42.5485L97.4101 47.7186L101.17 51.8909L97.8938 56.4741L100.707 61.3446Z" fill="#3D3D3C"/>
<path d="M102.602 61.6381L98.2821 65.6055L100.109 71.1859L95.0623 74.1637L95.6856 80.0064L90.1344 81.8623L89.5329 87.7043L83.7211 88.3613L81.9271 93.958L76.1123 93.3883L73.2052 98.4921L67.6312 96.7226L63.7335 101.108L58.654 98.2036L53.9311 101.667L49.5629 97.7653L44.2309 100.18L40.7591 95.4536L35.0469 96.7079L32.6377 91.3551L26.7946 91.3734L25.5509 85.6329L19.8283 84.4278L19.7935 78.5558L14.4458 76.187L15.6237 70.4283L10.8832 66.999L13.229 61.6117L9.31228 57.2591L12.7273 52.4826L9.79555 47.403L14.115 43.4356L12.2886 37.8551L17.3298 34.8766L16.7065 29.0338L22.2569 27.1831L22.8592 21.336L28.6702 20.684L30.4641 15.0873L36.2841 15.6578L39.1911 10.554L44.7601 12.3228L48.6629 7.9381L53.7423 10.8425L58.466 7.3736L62.8284 11.2801L68.1662 8.86147L71.633 13.5867L77.3494 12.3382L79.7536 17.6903L85.6017 17.6727L86.8454 23.4132L92.5688 24.6133L92.5977 30.4896L97.9462 32.8533L96.7683 38.612L101.513 42.0471L99.163 47.4286L103.085 51.7819L99.6698 56.5584L102.602 61.6381Z" stroke="#3D3D3C" stroke-width="1.08" stroke-miterlimit="10"/>
<path d="M50.1462 93.9788C71.9384 97.3214 92.3142 82.365 95.6568 60.5728C98.9994 38.7805 84.0431 18.4047 62.2508 15.0621C40.4586 11.7195 20.0828 26.6759 16.7402 48.4681C13.3976 70.2603 28.3539 90.6362 50.1462 93.9788Z" fill="white"/>
<path d="M50.3397 92.7158C71.4346 95.9514 91.1584 81.4737 94.394 60.3788C97.6296 39.2839 83.1519 19.5601 62.057 16.3245C40.9621 13.0888 21.2383 27.5666 18.0027 48.6615C14.767 69.7564 29.2448 89.4802 50.3397 92.7158Z" fill="#FCC02A"/>
<path d="M52.664 77.5643C65.3907 79.5164 77.2901 70.7818 79.2422 58.0552C81.1943 45.3285 72.4598 33.429 59.7331 31.4769C47.0065 29.5249 35.107 38.2594 33.1549 50.9861C31.2028 63.7127 39.9373 75.6122 52.664 77.5643Z" stroke="#3D3D3C" stroke-width="1.08" stroke-miterlimit="10"/>
<path d="M68.1973 70.7947C77.2201 64.1717 79.1655 51.4884 72.5426 42.4657C65.9197 33.4429 53.2363 31.4975 44.2136 38.1204C35.1908 44.7434 33.2454 57.4267 39.8683 66.4494C46.4913 75.4722 59.1746 77.4176 68.1973 70.7947Z" fill="white" stroke="#3D3D3C" stroke-width="4.32" stroke-miterlimit="10"/>
<path d="M46.0771 48.5099L46.9469 48.6433L45.7795 56.2543L44.7792 56.1008L45.7798 49.5771L44.0864 49.8071L43.9697 48.8989L46.0771 48.5099ZM52.3645 56.3073C51.7397 56.9459 50.9635 57.1941 50.0357 57.0518C49.1079 56.9095 48.4417 56.44 48.0371 55.6435C47.6325 54.847 47.5219 53.8507 47.7054 52.6547C47.8888 51.4586 48.2929 50.5413 48.9176 49.9026C49.5424 49.264 50.3186 49.0158 51.2464 49.1581C52.1743 49.3004 52.8405 49.7698 53.245 50.5664C53.6496 51.3629 53.7602 52.3592 53.5767 53.5552C53.3933 54.7512 52.9892 55.6686 52.3645 56.3073ZM48.8815 55.0719C49.136 55.6377 49.5713 55.9679 50.1874 56.0624C50.8036 56.1569 51.3178 55.9724 51.7302 55.5089C52.1498 55.0465 52.4319 54.3441 52.5764 53.4018C52.721 52.4595 52.6624 51.7049 52.4006 51.138C52.1472 50.5649 51.7125 50.2312 51.0963 50.1367C50.4802 50.0422 49.966 50.2267 49.5536 50.6902C49.1412 51.1537 48.8622 51.8602 48.7166 52.8098C48.572 53.7521 48.627 54.5061 48.8815 55.0719ZM59.2131 57.3577C58.5884 57.9964 57.8121 58.2446 56.8843 58.1023C55.9565 57.96 55.2903 57.4905 54.8857 56.694C54.4811 55.8974 54.3706 54.9011 54.554 53.7051C54.7375 52.5091 55.1415 51.5918 55.7663 50.9531C56.391 50.3144 57.1672 50.0663 58.0951 50.2086C59.0229 50.3509 59.6891 50.8203 60.0936 51.6169C60.4982 52.4134 60.6088 53.4097 60.4253 54.6057C60.2419 55.8017 59.8378 56.7191 59.2131 57.3577ZM55.7301 56.1224C55.9846 56.6882 56.4199 57.0183 57.036 57.1128C57.6522 57.2073 58.1664 57.0228 58.5788 56.5593C58.9984 56.0969 59.2805 55.3946 59.425 54.4523C59.5696 53.51 59.511 52.7554 59.2492 52.1885C58.9958 51.6154 58.5611 51.2816 57.945 51.1871C57.3288 51.0926 56.8146 51.2771 56.4022 51.7406C55.9898 52.2041 55.7108 52.9107 55.5652 53.8602C55.4206 54.8025 55.4756 55.5566 55.7301 56.1224ZM63.1053 54.427C62.6124 54.3514 62.2279 54.1254 61.9517 53.7492C61.6755 53.373 61.5736 52.9493 61.6459 52.4782C61.717 52.0143 61.9407 51.6442 62.3169 51.3681C62.7015 51.0858 63.1366 50.9819 63.6223 51.0564C64.1152 51.132 64.4997 51.3579 64.7759 51.7341C65.052 52.1103 65.154 52.534 65.0817 53.0052C65.0094 53.4763 64.7852 53.85 64.409 54.1261C64.04 54.4034 63.6054 54.5037 63.1053 54.427ZM62.6348 53.2864C62.7759 53.4787 62.9733 53.5943 63.227 53.6332C63.4807 53.6722 63.7007 53.6169 63.8868 53.4674C64.0802 53.319 64.1958 53.1215 64.2336 52.8751C64.2714 52.6286 64.2197 52.4093 64.0786 52.217C63.9458 52.0185 63.7526 51.8999 63.4989 51.861C63.2452 51.8221 63.0216 51.8768 62.8282 52.0252C62.6432 52.1674 62.5318 52.3618 62.494 52.6082C62.455 52.8619 62.502 53.088 62.6348 53.2864ZM61.3914 57.5472L67.3145 52.6688L67.8022 53.0441L61.8666 57.9317L61.3914 57.5472ZM67.0005 59.142C66.6242 59.4182 66.1897 59.5184 65.6968 59.4428C65.2039 59.3672 64.8193 59.1413 64.5432 58.7651C64.267 58.3889 64.1651 57.9652 64.2374 57.494C64.3096 57.0229 64.5339 56.6492 64.9101 56.3731C65.2863 56.0969 65.7209 55.9967 66.2138 56.0723C66.7067 56.1479 67.0912 56.3738 67.3674 56.75C67.6435 57.1262 67.7454 57.5499 67.6732 58.0211C67.6009 58.4922 67.3767 58.8659 67.0005 59.142ZM65.2279 58.2914C65.3691 58.4837 65.5665 58.5993 65.8202 58.6383C66.0739 58.6772 66.2933 58.6255 66.4783 58.4832C66.6717 58.3348 66.7873 58.1374 66.8251 57.891C66.8629 57.6445 66.8112 57.4251 66.6701 57.2329C66.5373 57.0344 66.3441 56.9158 66.0904 56.8769C65.8367 56.8379 65.6131 56.8927 65.4197 57.0411C65.2347 57.1833 65.1232 57.3777 65.0854 57.6241C65.0476 57.8706 65.0951 58.093 65.2279 58.2914Z" fill="#3D3D3C"/>
<path d="M46.0771 48.5099L46.1241 48.2035L46.0723 48.1955L46.0208 48.205L46.0771 48.5099ZM46.9469 48.6433L47.2533 48.6903L47.3003 48.3839L46.9939 48.3369L46.9469 48.6433ZM45.7795 56.2543L45.7325 56.5607L46.0389 56.6077L46.0859 56.3013L45.7795 56.2543ZM44.7792 56.1008L44.4728 56.0538L44.4258 56.3603L44.7322 56.4073L44.7792 56.1008ZM45.7798 49.5771L46.0862 49.6241L46.1491 49.2142L45.7381 49.27L45.7798 49.5771ZM44.0864 49.8071L43.7789 49.8466L43.8187 50.1562L44.1281 50.1142L44.0864 49.8071ZM43.9697 48.8989L43.9135 48.594L43.6249 48.6473L43.6623 48.9384L43.9697 48.8989ZM46.0301 48.8163L46.8999 48.9497L46.9939 48.3369L46.1241 48.2035L46.0301 48.8163ZM46.6405 48.5963L45.4731 56.2073L46.0859 56.3013L47.2533 48.6903L46.6405 48.5963ZM45.8265 55.9479L44.8262 55.7944L44.7322 56.4073L45.7325 56.5607L45.8265 55.9479ZM45.0856 56.1478L46.0862 49.6241L45.4734 49.5301L44.4728 56.0538L45.0856 56.1478ZM45.7381 49.27L44.0447 49.4999L44.1281 50.1142L45.8215 49.8843L45.7381 49.27ZM44.3939 49.7676L44.2772 48.8594L43.6623 48.9384L43.7789 49.8466L44.3939 49.7676ZM44.026 49.2037L46.1333 48.8147L46.0208 48.205L43.9135 48.594L44.026 49.2037ZM52.3645 56.3073L52.1429 56.0905L52.3645 56.3073ZM48.0371 55.6435L48.3135 55.5031L48.0371 55.6435ZM48.9176 49.9026L49.1392 50.1194L48.9176 49.9026ZM53.245 50.5664L52.9686 50.7068L52.9686 50.7068L53.245 50.5664ZM48.8815 55.0719L49.1642 54.9447L48.8815 55.0719ZM51.7302 55.5089L51.5006 55.3005L51.4986 55.3028L51.7302 55.5089ZM52.4006 51.138L52.1171 51.2634L52.1192 51.2679L52.4006 51.138ZM49.5536 50.6902L49.322 50.4841L49.5536 50.6902ZM52.1429 56.0905C51.5921 56.6536 50.9176 56.8734 50.0827 56.7454L49.9887 57.3582C51.0093 57.5148 51.8874 57.2383 52.5861 56.524L52.1429 56.0905ZM50.0827 56.7454C49.2477 56.6173 48.6702 56.2054 48.3135 55.5031L47.7607 55.7839C48.2131 56.6747 48.968 57.2016 49.9887 57.3582L50.0827 56.7454ZM48.3135 55.5031C47.947 54.7817 47.8348 53.8559 48.0118 52.7017L47.399 52.6077C47.2091 53.8454 47.318 54.9122 47.7607 55.7839L48.3135 55.5031ZM48.0118 52.7017C48.1888 51.5474 48.5734 50.6979 49.1392 50.1194L48.696 49.6859C48.0124 50.3847 47.5888 51.3699 47.399 52.6077L48.0118 52.7017ZM49.1392 50.1194C49.69 49.5563 50.3645 49.3365 51.1994 49.4645L51.2934 48.8517C50.2728 48.6951 49.3947 48.9716 48.696 49.6859L49.1392 50.1194ZM51.1994 49.4645C52.0344 49.5926 52.6119 50.0045 52.9686 50.7068L53.5214 50.426C53.069 49.5352 52.3141 49.0082 51.2934 48.8517L51.1994 49.4645ZM52.9686 50.7068C53.3351 51.4282 53.4473 52.354 53.2703 53.5082L53.8831 53.6022C54.073 52.3645 53.9641 51.2976 53.5214 50.426L52.9686 50.7068ZM53.2703 53.5082C53.0933 54.6625 52.7087 55.512 52.1429 56.0905L52.5861 56.524C53.2697 55.8252 53.6933 54.84 53.8831 53.6022L53.2703 53.5082ZM48.5988 55.1991C48.8966 55.8613 49.421 56.2584 50.1404 56.3688L50.2344 55.7559C49.7216 55.6773 49.3754 55.4141 49.1642 54.9447L48.5988 55.1991ZM50.1404 56.3688C50.8598 56.4791 51.4792 56.2574 51.9618 55.7149L51.4986 55.3028C51.1565 55.6873 50.7473 55.8346 50.2344 55.7559L50.1404 56.3688ZM51.9597 55.7172C52.4365 55.1918 52.7336 54.4218 52.8828 53.4488L52.27 53.3548C52.1302 54.2665 51.8631 54.9011 51.5006 55.3005L51.9597 55.7172ZM52.8828 53.4488C53.0321 52.4758 52.9795 51.6522 52.6821 51.008L52.1192 51.2679C52.3452 51.7576 52.4098 52.4431 52.27 53.3548L52.8828 53.4488ZM52.6841 51.0126C52.3882 50.3434 51.8647 49.9409 51.1433 49.8302L51.0493 50.4431C51.5602 50.5214 51.9062 50.7864 52.1171 51.2633L52.6841 51.0126ZM51.1433 49.8302C50.4239 49.7199 49.8046 49.9416 49.322 50.4841L49.7852 50.8962C50.1273 50.5117 50.5365 50.3644 51.0493 50.4431L51.1433 49.8302ZM49.322 50.4841C48.8536 51.0105 48.5603 51.784 48.4101 52.7628L49.023 52.8568C49.1642 51.9364 49.4288 51.2968 49.7852 50.8962L49.322 50.4841ZM48.4101 52.7628C48.261 53.7348 48.3099 54.5568 48.5988 55.1991L49.1642 54.9447C48.9441 54.4555 48.883 53.7694 49.023 52.8568L48.4101 52.7628ZM59.2131 57.3577L58.9915 57.141L59.2131 57.3577ZM54.8857 56.694L55.1621 56.5536L54.8857 56.694ZM55.7663 50.9531L55.9879 51.1699L55.7663 50.9531ZM60.0936 51.6169L59.8173 51.7573L59.8173 51.7573L60.0936 51.6169ZM55.7301 56.1224L56.0128 55.9952L55.7301 56.1224ZM58.5788 56.5593L58.3492 56.351L58.3472 56.3533L58.5788 56.5593ZM59.2492 52.1885L58.9657 52.3138L58.9678 52.3184L59.2492 52.1885ZM56.4022 51.7406L56.1706 51.5346L56.4022 51.7406ZM58.9915 57.141C58.4407 57.7041 57.7662 57.9239 56.9313 57.7958L56.8373 58.4087C57.858 58.5652 58.736 58.2888 59.4347 57.5745L58.9915 57.141ZM56.9313 57.7958C56.0963 57.6678 55.5188 57.2559 55.1621 56.5536L54.6093 56.8344C55.0618 57.7252 55.8166 58.2521 56.8373 58.4087L56.9313 57.7958ZM55.1621 56.5536C54.7956 55.8321 54.6834 54.9064 54.8604 53.7521L54.2476 53.6581C54.0577 54.8959 54.1666 55.9627 54.6093 56.8344L55.1621 56.5536ZM54.8604 53.7521C55.0375 52.5979 55.422 51.7483 55.9879 51.1699L55.5446 50.7363C54.861 51.4352 54.4374 52.4204 54.2476 53.6581L54.8604 53.7521ZM55.9879 51.1699C56.5387 50.6068 57.2131 50.3869 58.0481 50.515L58.1421 49.9022C57.1214 49.7456 56.2433 50.0221 55.5446 50.7363L55.9879 51.1699ZM58.0481 50.515C58.883 50.6431 59.4606 51.055 59.8173 51.7573L60.37 51.4765C59.9176 50.5857 59.1627 50.0587 58.1421 49.9022L58.0481 50.515ZM59.8173 51.7573C60.1837 52.4787 60.296 53.4045 60.1189 54.5587L60.7318 54.6527C60.9216 53.4149 60.8128 52.3481 60.37 51.4765L59.8173 51.7573ZM60.1189 54.5587C59.9419 55.713 59.5573 56.5625 58.9915 57.141L59.4347 57.5745C60.1183 56.8756 60.5419 55.8905 60.7318 54.6527L60.1189 54.5587ZM55.4474 56.2496C55.7452 56.9117 56.2696 57.3089 56.989 57.4193L57.083 56.8064C56.5702 56.7278 56.224 56.4646 56.0128 55.9952L55.4474 56.2496ZM56.989 57.4193C57.7085 57.5296 58.3278 57.3079 58.8104 56.7654L58.3472 56.3533C58.0051 56.7378 57.5959 56.8851 57.083 56.8064L56.989 57.4193ZM58.8084 56.7677C59.2852 56.2423 59.5822 55.4722 59.7315 54.4993L59.1186 54.4053C58.9788 55.3169 58.7117 55.9516 58.3492 56.351L58.8084 56.7677ZM59.7315 54.4993C59.8807 53.5263 59.8281 52.7027 59.5307 52.0585L58.9678 52.3184C59.1939 52.8081 59.2585 53.4936 59.1186 54.4053L59.7315 54.4993ZM59.5327 52.0631C59.2369 51.3939 58.7133 50.9914 57.992 50.8807L57.898 51.4936C58.4089 51.5719 58.7548 51.8369 58.9657 52.3138L59.5327 52.0631ZM57.992 50.8807C57.2726 50.7704 56.6532 50.9921 56.1706 51.5346L56.6338 51.9467C56.9759 51.5622 57.3851 51.4149 57.898 51.4936L57.992 50.8807ZM56.1706 51.5346C55.7022 52.061 55.4089 52.8345 55.2588 53.8132L55.8716 53.9072C56.0128 52.9868 56.2774 52.3473 56.6338 51.9467L56.1706 51.5346ZM55.2588 53.8132C55.1097 54.7853 55.1585 55.6073 55.4474 56.2496L56.0128 55.9952C55.7927 55.5059 55.7316 54.8198 55.8716 53.9072L55.2588 53.8132ZM61.9517 53.7492L61.7018 53.9327L61.9517 53.7492ZM62.3169 51.3681L62.1335 51.1182L62.1335 51.1182L62.3169 51.3681ZM64.7759 51.7341L64.526 51.9175L64.526 51.9175L64.7759 51.7341ZM64.409 54.1261L64.2255 53.8762L64.2227 53.8783L64.409 54.1261ZM62.6348 53.2864L62.3769 53.459L62.3849 53.4699L62.6348 53.2864ZM63.8868 53.4674L63.6981 53.2213L63.6927 53.2257L63.8868 53.4674ZM64.0786 52.217L63.8207 52.3895L63.8287 52.4004L64.0786 52.217ZM62.8282 52.0252L62.6395 51.7792L62.6393 51.7794L62.8282 52.0252ZM61.3914 57.5472L61.1943 57.3079L60.9012 57.5493L61.1964 57.7882L61.3914 57.5472ZM67.3145 52.6688L67.5035 52.4231L67.3079 52.2726L67.1174 52.4295L67.3145 52.6688ZM67.8022 53.0441L67.9993 53.2834L68.2999 53.0359L67.9913 52.7984L67.8022 53.0441ZM61.8666 57.9317L61.6716 58.1727L61.8683 58.3318L62.0637 58.171L61.8666 57.9317ZM67.0005 59.142L67.1839 59.3919L67.0005 59.142ZM64.5432 58.7651L64.2933 58.9485L64.5432 58.7651ZM64.9101 56.3731L64.7267 56.1232L64.9101 56.3731ZM67.3674 56.75L67.6173 56.5666L67.3674 56.75ZM65.2279 58.2914L64.97 58.464L64.978 58.4749L65.2279 58.2914ZM66.4783 58.4832L66.2896 58.2373L66.2894 58.2375L66.4783 58.4832ZM66.6701 57.2329L66.4122 57.4054L66.4202 57.4163L66.6701 57.2329ZM65.4197 57.0411L65.231 56.7951L65.2308 56.7953L65.4197 57.0411ZM63.1523 54.1205C62.7345 54.0565 62.4255 53.8709 62.2016 53.5658L61.7018 53.9327C62.0302 54.38 62.4903 54.6463 63.0583 54.7334L63.1523 54.1205ZM62.2016 53.5658C61.9753 53.2574 61.8922 52.917 61.9523 52.5252L61.3395 52.4312C61.255 52.9816 61.3758 53.4886 61.7018 53.9327L62.2016 53.5658ZM61.9523 52.5252C62.0111 52.142 62.1909 51.8452 62.5004 51.618L62.1335 51.1182C61.6906 51.4433 61.423 51.8865 61.3395 52.4312L61.9523 52.5252ZM62.5004 51.618C62.8165 51.3859 63.1682 51.3003 63.5753 51.3628L63.6693 50.75C63.1051 50.6634 62.5865 50.7856 62.1335 51.1182L62.5004 51.618ZM63.5753 51.3628C63.9931 51.4269 64.302 51.6125 64.526 51.9175L65.0258 51.5507C64.6974 51.1033 64.2373 50.8371 63.6693 50.75L63.5753 51.3628ZM64.526 51.9175C64.7523 52.2259 64.8354 52.5663 64.7753 52.9582L65.3881 53.0522C65.4725 52.5017 65.3517 51.9947 65.0258 51.5507L64.526 51.9175ZM64.7753 52.9582C64.7152 53.35 64.5339 53.6499 64.2255 53.8762L64.5924 54.376C65.0365 54.0501 65.3037 53.6026 65.3881 53.0522L64.7753 52.9582ZM64.2227 53.8783C63.9272 54.1004 63.5787 54.186 63.1523 54.1205L63.0583 54.7334C63.6321 54.8214 64.1528 54.7064 64.5952 54.374L64.2227 53.8783ZM62.3849 53.4699C62.5786 53.7338 62.8519 53.8893 63.18 53.9397L63.274 53.3268C63.0948 53.2993 62.9732 53.2236 62.8847 53.103L62.3849 53.4699ZM63.18 53.9397C63.5124 53.9906 63.8215 53.9174 64.0809 53.7091L63.6927 53.2257C63.5798 53.3163 63.4491 53.3537 63.274 53.3268L63.18 53.9397ZM64.0755 53.7133C64.3339 53.515 64.4904 53.2455 64.54 52.9221L63.9272 52.8281C63.9012 52.9975 63.8265 53.1229 63.6981 53.2214L64.0755 53.7133ZM64.54 52.9221C64.5897 52.5985 64.5207 52.2954 64.3285 52.0335L63.8287 52.4004C63.9188 52.5232 63.9532 52.6588 63.9272 52.8281L64.54 52.9221ZM64.3362 52.0446C64.1512 51.7681 63.8782 51.6055 63.5459 51.5545L63.4519 52.1674C63.6269 52.1942 63.7404 52.269 63.821 52.3894L64.3362 52.0446ZM63.5459 51.5545C63.2136 51.5036 62.9038 51.5764 62.6395 51.7792L63.0169 52.2711C63.1394 52.1771 63.2768 52.1405 63.4519 52.1674L63.5459 51.5545ZM62.6393 51.7794C62.3863 51.9739 62.2365 52.2418 62.1875 52.5612L62.8004 52.6552C62.827 52.4818 62.9 52.361 63.0172 52.271L62.6393 51.7794ZM62.1875 52.5612C62.1378 52.8853 62.1978 53.1909 62.3771 53.4588L62.8924 53.114C62.8062 52.9852 62.7723 52.8386 62.8004 52.6552L62.1875 52.5612ZM61.5885 57.7865L67.5116 52.9081L67.1174 52.4295L61.1943 57.3079L61.5885 57.7865ZM67.1255 52.9145L67.6132 53.2898L67.9913 52.7984L67.5035 52.4231L67.1255 52.9145ZM67.6052 52.8048L61.6696 57.6924L62.0637 58.171L67.9993 53.2834L67.6052 52.8048ZM62.0616 57.6907L61.5864 57.3062L61.1964 57.7882L61.6716 58.1727L62.0616 57.6907ZM66.817 58.8921C66.5119 59.116 66.1616 59.2005 65.7438 59.1364L65.6498 59.7493C66.2178 59.8364 66.7365 59.7203 67.1839 59.3919L66.817 58.8921ZM65.7438 59.1364C65.326 59.0723 65.017 58.8867 64.7931 58.5817L64.2933 58.9485C64.6217 59.3959 65.0818 59.6621 65.6498 59.7493L65.7438 59.1364ZM64.7931 58.5817C64.5667 58.2733 64.4837 57.9329 64.5438 57.541L63.9309 57.447C63.8465 57.9975 63.9673 58.5045 64.2933 58.9485L64.7931 58.5817ZM64.5438 57.541C64.6039 57.1492 64.7852 56.8493 65.0935 56.623L64.7267 56.1232C64.2826 56.4491 64.0154 56.8966 63.9309 57.447L64.5438 57.541ZM65.0935 56.623C65.3986 56.3991 65.749 56.3146 66.1668 56.3787L66.2608 55.7658C65.6928 55.6787 65.174 55.7948 64.7267 56.1232L65.0935 56.623ZM66.1668 56.3787C66.5846 56.4428 66.8935 56.6284 67.1175 56.9334L67.6173 56.5666C67.2889 56.1192 66.8288 55.853 66.2608 55.7658L66.1668 56.3787ZM67.1175 56.9334C67.3438 57.2418 67.4269 57.5822 67.3668 57.9741L67.9796 58.0681C68.064 57.5176 67.9432 57.0106 67.6173 56.5666L67.1175 56.9334ZM67.3668 57.9741C67.3067 58.3659 67.1254 58.6658 66.817 58.8921L67.1839 59.3919C67.628 59.066 67.8952 58.6185 67.9796 58.0681L67.3668 57.9741ZM64.978 58.4749C65.1718 58.7388 65.4451 58.8943 65.7732 58.9447L65.8672 58.3318C65.6879 58.3043 65.5664 58.2287 65.4778 58.108L64.978 58.4749ZM65.7732 58.9447C66.1013 58.995 66.4081 58.9282 66.6672 58.729L66.2894 58.2375C66.1784 58.3227 66.0465 58.3593 65.8672 58.3318L65.7732 58.9447ZM66.667 58.7292C66.9254 58.5309 67.0819 58.2614 67.1315 57.938L66.5187 57.844C66.4927 58.0134 66.418 58.1388 66.2896 58.2373L66.667 58.7292ZM67.1315 57.938C67.1812 57.6144 67.1122 57.3113 66.92 57.0494L66.4202 57.4163C66.5103 57.539 66.5446 57.6747 66.5187 57.844L67.1315 57.938ZM66.9277 57.0605C66.7427 56.784 66.4697 56.6214 66.1374 56.5704L66.0434 57.1833C66.2184 57.2101 66.3319 57.2849 66.4124 57.4053L66.9277 57.0605ZM66.1374 56.5704C65.8051 56.5195 65.4953 56.5923 65.231 56.7951L65.6084 57.287C65.7309 57.193 65.8682 57.1564 66.0434 57.1833L66.1374 56.5704ZM65.2308 56.7953C64.9778 56.9898 64.828 57.2577 64.779 57.5771L65.3919 57.6711C65.4185 57.4977 65.4915 57.3769 65.6086 57.2868L65.2308 56.7953ZM64.779 57.5771C64.73 57.8965 64.7923 58.1979 64.9703 58.4639L65.4856 58.119C65.398 57.9881 65.3652 57.8447 65.3919 57.6711L64.779 57.5771Z" fill="#3D3D3C"/>
<path d="M25.3906 63.6879L29.4692 62.375" stroke="#FAB400" stroke-width="2.16" stroke-miterlimit="10"/>
<path d="M28.8417 70.6796L32.3857 68.6385" stroke="#FAB400" stroke-width="2.16" stroke-miterlimit="10"/>
<path d="M33.6524 77.2328L36.7587 73.8322" stroke="#FAB400" stroke-width="2.16" stroke-miterlimit="10"/>
<path d="M87.6874 49.3344L83.7057 50.0161" stroke="#FAB400" stroke-width="2.16" stroke-miterlimit="10"/>
<path d="M85.5961 41.9057L81.5176 43.2187" stroke="#FAB400" stroke-width="2.16" stroke-miterlimit="10"/>
<path d="M81.5136 34.8177L77.8727 37.4902" stroke="#FAB400" stroke-width="2.16" stroke-miterlimit="10"/>
<path d="M75.8784 29.4298L72.772 32.8305" stroke="#FAB400" stroke-width="2.16" stroke-miterlimit="10"/>
<path d="M24.7087 59.706L28.6903 59.0244" stroke="#FAB400" stroke-width="2.16" stroke-miterlimit="10"/>
<path d="M26.8003 67.1352L30.8788 65.8222" stroke="#FAB400" stroke-width="2.16" stroke-miterlimit="10"/>
<path d="M30.8825 74.2231L34.5234 71.5506" stroke="#FAB400" stroke-width="2.16" stroke-miterlimit="10"/>
<path d="M37.1499 79.7079L39.625 76.2104" stroke="#FAB400" stroke-width="2.16" stroke-miterlimit="10"/>
<path d="M87.0063 45.3525L82.9278 46.6655" stroke="#FAB400" stroke-width="2.16" stroke-miterlimit="10"/>
<path d="M83.6518 37.7303L80.0109 40.4028" stroke="#FAB400" stroke-width="2.16" stroke-miterlimit="10"/>
<path d="M78.7446 31.8082L75.7351 34.5776" stroke="#FAB400" stroke-width="2.16" stroke-miterlimit="10"/>
<path d="M31.2916 32.4185L31.937 33.0797L30.0399 34.9314L33.2363 38.206L32.5515 38.8745L28.7097 34.9387L31.2916 32.4185Z" fill="#3D3D3C"/>
<path d="M38.1726 25.9L39.0314 25.4777L41.4585 30.4132L40.5997 30.8355L40.1822 29.9866C40.0749 30.8485 39.6132 31.48 38.7972 31.8813C38.1062 32.2211 37.3943 32.2607 36.6614 32C35.9252 31.7328 35.3791 31.2372 35.0232 30.5133C34.6672 29.7895 34.6097 29.0577 34.8508 28.3181C35.0885 27.5719 35.5529 27.0289 36.2439 26.6891C37.0599 26.2879 37.842 26.3078 38.5901 26.7489L38.1726 25.9ZM38.498 30.9987C38.9982 30.7528 39.3335 30.3795 39.5041 29.8788C39.6714 29.3716 39.6321 28.8679 39.3862 28.3678C39.1402 27.8677 38.7669 27.5323 38.2663 27.3617C37.7624 27.1846 37.2604 27.219 36.7602 27.4649C36.2667 27.7076 35.9362 28.0826 35.7689 28.5898C35.5983 29.0905 35.636 29.5909 35.882 30.091C36.1279 30.5912 36.5028 30.9298 37.0067 31.1069C37.5074 31.2775 38.0045 31.2415 38.498 30.9987Z" fill="#3D3D3C"/>
<path d="M47.3473 21.0725C48.1026 20.9226 48.8013 21.0717 49.4436 21.5199C50.0843 21.961 50.4833 22.5771 50.6403 23.3683C50.7973 24.1596 50.6647 24.8849 50.2423 25.5444C49.8186 26.1968 49.229 26.5979 48.4738 26.7478C47.5818 26.9248 46.8314 26.7037 46.2225 26.0844L46.835 29.1702L45.8963 29.3565L44.3973 21.8038L45.336 21.6175L45.5201 22.5454C45.8463 21.7405 46.4554 21.2495 47.3473 21.0725ZM48.1752 25.865C48.7147 25.7579 49.1314 25.4846 49.4255 25.0449C49.7181 24.5981 49.8101 24.1013 49.7016 23.5546C49.5931 23.008 49.319 22.5876 48.8794 22.2936C48.4383 21.9924 47.948 21.8953 47.4085 22.0024C46.8619 22.1109 46.4422 22.3885 46.1496 22.8354C45.8556 23.275 45.7628 23.7682 45.8713 24.3149C45.9798 24.8615 46.2546 25.2855 46.6957 25.5867C47.1354 25.8808 47.6285 25.9735 48.1752 25.865Z" fill="#3D3D3C"/>
<path d="M59.5661 21.3909L60.5211 21.4532L60.1629 26.9416L59.2079 26.8792L59.2695 25.9353C58.7466 26.6287 58.0314 26.9458 57.124 26.8866C56.3557 26.8364 55.7189 26.5156 55.2136 25.9241C54.7089 25.3253 54.4828 24.6234 54.5353 23.8185C54.5879 23.0135 54.903 22.3506 55.4808 21.8298C56.0591 21.3017 56.7324 21.0627 57.5008 21.1128C58.4082 21.1721 59.0761 21.5794 59.5045 22.3349L59.5661 21.3909ZM57.3049 25.9724C57.8611 26.0087 58.338 25.8524 58.7355 25.5036C59.1335 25.1474 59.3507 24.6912 59.387 24.1351C59.4233 23.5789 59.267 23.1021 58.9182 22.7045C58.5698 22.2996 58.1175 22.0791 57.5614 22.0428C57.0126 22.0069 56.5391 22.1671 56.1411 22.5233C55.7435 22.8721 55.5266 23.3246 55.4903 23.8808C55.454 24.4369 55.61 24.9175 55.9584 25.3223C56.3073 25.7199 56.7561 25.9366 57.3049 25.9724Z" fill="#3D3D3C"/>
<path d="M69.2125 23.9388L70.1234 24.2324L68.4364 29.4672L67.5255 29.1737L68.2307 26.9855L65.519 26.1116L64.8138 28.2998L63.903 28.0063L65.59 22.7714L66.5009 23.0649L65.7991 25.2426L68.5107 26.1165L69.2125 23.9388Z" fill="#3D3D3C"/>
<path d="M77.5342 29.2502L77.0676 30.0477L75.4535 29.1034L73.1428 33.0531L72.3168 32.5699L74.6275 28.6202L73.004 27.6703L73.4705 26.8728L77.5342 29.2502Z" fill="#3D3D3C"/>
<path d="M83.7521 36.1675L84.2337 36.7683L79.9424 40.2084L79.3507 39.4703L82.3632 37.0554L77.4448 37.0929L76.9632 36.4921L81.2545 33.052L81.8462 33.7901L78.8337 36.2051L83.7521 36.1675Z" fill="#3D3D3C"/>
<path d="M89.2115 45.2539L84.4628 48.0289L83.9855 47.2121L85.6951 46.2131L85.2899 45.5198L82.8034 45.1892L82.2151 44.1824L84.7824 44.5423C84.6639 44.136 84.6728 43.7443 84.8092 43.3673C84.9456 42.9903 85.1911 42.6982 85.5457 42.491C85.9826 42.2357 86.4373 42.1781 86.9098 42.3181C87.3824 42.4582 87.7556 42.7625 88.0294 43.231L89.2115 45.2539ZM85.7477 44.6025L86.4358 45.7802L87.9649 44.8867L87.2767 43.709C87.1398 43.4748 86.9536 43.316 86.7181 43.2328C86.4826 43.1496 86.2478 43.1764 86.0135 43.3133C85.7856 43.4465 85.65 43.6361 85.607 43.8821C85.5639 44.1281 85.6108 44.3683 85.7477 44.6025Z" fill="#3D3D3C"/>
<path d="M28.3869 73.2517L27.6898 72.2897L28.3292 68.7292L26.2182 70.2589L25.6566 69.484L30.1103 66.2567L30.6718 67.0316L28.7033 68.4581L32.066 68.9556L32.7889 69.9532L29.0907 69.3864L28.3869 73.2517Z" fill="#3D3D3C"/>
<path d="M37.0878 75.3205L37.8507 75.8983L34.53 80.2827L33.7671 79.7049L34.3382 78.9508C33.5199 79.2417 32.7483 79.1127 32.0234 78.5637C31.4096 78.0988 31.0547 77.4804 30.9586 76.7084C30.8669 75.9307 31.0646 75.2203 31.5516 74.5772C32.0387 73.9342 32.6667 73.5543 33.4358 73.4377C34.2093 73.3152 34.903 73.4864 35.5168 73.9513C36.2417 74.5003 36.575 75.2081 36.5166 76.0746L37.0878 75.3205ZM32.6778 77.9002C33.1221 78.2367 33.6062 78.3687 34.1301 78.2964C34.6585 78.2182 35.0909 77.957 35.4274 77.5127C35.7639 77.0684 35.896 76.5843 35.8237 76.0604C35.7558 75.5306 35.4997 75.0974 35.0554 74.7609C34.617 74.4289 34.1336 74.3019 33.6052 74.3801C33.0812 74.4524 32.651 74.7107 32.3145 75.155C31.978 75.5993 31.8437 76.0863 31.9116 76.6161C31.9839 77.1401 32.2393 77.5681 32.6778 77.9002Z" fill="#3D3D3C"/>
<path d="M43.4986 80.4967L44.3644 80.9043L42.0217 85.8804L41.1558 85.4728L41.9992 83.6814C41.5199 83.6664 41.0315 83.5419 40.5338 83.3076C39.8969 83.0077 39.4729 82.6257 39.2618 82.1616C39.0605 81.694 39.0988 81.1649 39.3768 80.5744L40.1546 78.9223L41.0205 79.33L40.2661 80.9323C40.0912 81.3038 40.0658 81.6161 40.1898 81.869C40.3205 82.1251 40.5816 82.3453 40.9731 82.5296C41.4442 82.7513 41.9127 82.8666 42.3787 82.8752L43.4986 80.4967Z" fill="#3D3D3C"/>
<path d="M46.9631 85.2699C46.94 85.7699 47.0675 86.1932 47.3456 86.5398C47.6309 86.8882 48.0265 87.1238 48.5325 87.2465C49.238 87.4176 49.8143 87.2819 50.2611 86.8394L50.9433 87.4803C50.2277 88.1594 49.3462 88.3719 48.2985 88.1179C47.4504 87.9122 46.8231 87.4808 46.4165 86.8238C46.0187 86.1614 45.9184 85.424 46.1154 84.6116C46.3107 83.8062 46.7333 83.1994 47.3832 82.7911C48.0331 82.3827 48.7714 82.2788 49.5981 82.4793C50.382 82.6694 50.9525 83.1021 51.3094 83.7772C51.6752 84.447 51.7639 85.1703 51.5755 85.9471C51.5426 86.0825 51.4982 86.2189 51.4423 86.3562L46.9631 85.2699ZM49.3855 83.3559C48.8866 83.2349 48.4387 83.2772 48.0417 83.4828C47.6465 83.6812 47.3527 84.0061 47.1602 84.4575L50.7307 85.3234C50.775 84.7984 50.6688 84.3651 50.412 84.0237C50.1553 83.6822 49.8131 83.4596 49.3855 83.3559Z" fill="#3D3D3C"/>
<path d="M57.3545 88.9734C56.5264 88.9437 55.8473 88.6442 55.3174 88.0748C54.7877 87.4981 54.5376 86.7994 54.5671 85.9786C54.5965 85.1578 54.8959 84.4824 55.4653 83.9525C56.0349 83.4152 56.7338 83.1614 57.5619 83.1911C58.1042 83.2106 58.5868 83.36 59.0098 83.6393C59.4329 83.9113 59.7429 84.271 59.9397 84.7183L59.1206 85.1513C58.9919 84.8531 58.7841 84.6109 58.4973 84.4245C58.2178 84.2383 57.8948 84.1387 57.5284 84.1255C56.9787 84.1058 56.5103 84.2761 56.1232 84.6365C55.7433 84.9971 55.5434 85.4559 55.5234 86.0129C55.5037 86.5625 55.6704 87.0308 56.0234 87.4177C56.3838 87.8049 56.8388 88.0083 57.3884 88.028C57.7548 88.0412 58.0877 87.9687 58.3868 87.8107C58.6863 87.6453 58.9182 87.4188 59.0826 87.1312L59.8792 87.633C59.6291 88.057 59.2795 88.393 58.8304 88.6411C58.3815 88.8818 57.8895 88.9926 57.3545 88.9734Z" fill="#3D3D3C"/>
<path d="M66.4045 81.7758L66.5406 82.6897L64.691 82.9652L65.3651 87.4912L64.4186 87.6322L63.7444 83.1062L61.8839 83.3833L61.7478 82.4694L66.4045 81.7758Z" fill="#3D3D3C"/>
<path d="M72.9686 81.006C73.5787 81.0478 73.9822 81.3605 74.1792 81.9442C74.3245 82.375 74.2982 82.7786 74.1002 83.155C73.9067 83.5221 73.5425 83.7959 73.0075 83.9765L70.4018 84.8557L68.6433 79.6445L71.0405 78.8355C71.5616 78.6597 72.0092 78.6557 72.3831 78.8236C72.7548 78.9846 73.0121 79.277 73.1551 79.7008C73.324 80.2011 73.2618 80.6362 72.9686 81.006ZM71.2731 79.6626L69.8035 80.1585L70.2643 81.5238L71.7339 81.0279C72.2619 80.8497 72.4474 80.5279 72.2903 80.0623C72.1403 79.6176 71.8012 79.4844 71.2731 79.6626ZM72.6775 83.1707C72.9415 83.0816 73.1219 82.9511 73.2187 82.7791C73.3224 82.6048 73.3356 82.403 73.2582 82.1737C73.1855 81.9583 73.0563 81.8161 72.8705 81.7473C72.6893 81.6691 72.4667 81.6745 72.2027 81.7636L70.5351 82.3264L71.0099 83.7334L72.6775 83.1707Z" fill="#3D3D3C"/>
<path d="M78.0785 72.9075L78.8249 72.3085L82.2673 76.598L81.5209 77.197L80.9288 76.4592C81.0115 77.3237 80.6982 78.0406 79.989 78.6097C79.3885 79.0917 78.7022 79.2851 77.9301 79.1901C77.1534 79.0894 76.5127 78.7245 76.0078 78.0953C75.5029 77.4662 75.2877 76.7645 75.3621 75.9902C75.4319 75.2101 75.767 74.5791 76.3676 74.0972C77.0767 73.528 77.8444 73.3774 78.6706 73.6453L78.0785 72.9075ZM79.505 77.8134C79.9397 77.4645 80.1858 77.0272 80.2434 76.5015C80.2964 75.97 80.1485 75.4869 79.7997 75.0522C79.4509 74.6176 79.0136 74.3714 78.4878 74.3138C77.9574 74.2505 77.4749 74.3933 77.0402 74.7421C76.6113 75.0863 76.3703 75.5242 76.3173 76.0557C76.2597 76.5815 76.4053 77.0617 76.7542 77.4964C77.103 77.931 77.5426 78.18 78.0729 78.2433C78.5987 78.3009 79.0761 78.1576 79.505 77.8134Z" fill="#3D3D3C"/>
<path d="M26.3274 47.2729C26.4581 47.0133 26.8446 47.0726 26.8915 47.3594L27.1564 48.981C27.1774 49.1093 27.2785 49.2094 27.407 49.2291L29.0311 49.4783C29.3183 49.5223 29.3814 49.9082 29.1231 50.0414L27.6628 50.7945C27.5473 50.8541 27.4832 50.9812 27.5042 51.1095L27.7692 52.7311C27.816 53.0179 27.4685 53.1971 27.262 52.9926L26.0945 51.8365C26.0022 51.745 25.8614 51.7234 25.7459 51.783L24.2856 52.5361C24.0273 52.6693 23.7495 52.3941 23.8801 52.1345L24.6189 50.6669C24.6773 50.5509 24.6544 50.4103 24.562 50.3189L23.3946 49.1627C23.1881 48.9583 23.3639 48.609 23.6511 48.6531L25.2752 48.9022C25.4037 48.9219 25.5302 48.8566 25.5887 48.7405L26.3274 47.2729Z" fill="#3D3D3C"/>
<path d="M86.3045 56.4726C86.4352 56.213 86.8217 56.2723 86.8685 56.5591L87.1335 58.1807C87.1544 58.309 87.2556 58.4091 87.3841 58.4289L89.0081 58.678C89.2954 58.722 89.3584 59.1079 89.1002 59.2411L87.6398 59.9942C87.5243 60.0538 87.4603 60.1809 87.4813 60.3092L87.7462 61.9308C87.7931 62.2176 87.4455 62.3968 87.239 62.1923L86.0716 61.0362C85.9792 60.9447 85.8385 60.9231 85.723 60.9827L84.2626 61.7358C84.0043 61.869 83.7265 61.5938 83.8572 61.3342L84.596 59.8666C84.6544 59.7506 84.6314 59.61 84.5391 59.5186L83.3716 58.3625C83.1651 58.158 83.3409 57.8087 83.6282 57.8528L85.2523 58.1019C85.3807 58.1216 85.5073 58.0563 85.5657 57.9402L86.3045 56.4726Z" fill="#3D3D3C"/>
<defs>
<linearGradient id="paint0_linear" x1="30.78" y1="87.6478" x2="36.3452" y2="108.55" gradientUnits="userSpaceOnUse">
<stop stop-color="#FFA800"/>
<stop offset="1" stop-color="#FFD15E"/>
</linearGradient>
<linearGradient id="paint1_linear" x1="62.9431" y1="92.5809" x2="68.5083" y2="113.483" gradientUnits="userSpaceOnUse">
<stop stop-color="#FFA800"/>
<stop offset="1" stop-color="#FFD15E"/>
</linearGradient>
</defs>
</svg>
