<svg width="19" height="17" viewBox="0 0 19 17" fill="none" xmlns="http://www.w3.org/2000/svg">
<path d="M8.54938 0.92705C8.84873 0.00573945 10.1521 0.00574064 10.4515 0.927051L11.8079 5.10177C11.9418 5.51379 12.3258 5.79275 12.759 5.79275L17.1486 5.79275C18.1173 5.79275 18.5201 7.03237 17.7363 7.60177L14.1851 10.1819C13.8346 10.4365 13.688 10.8879 13.8218 11.2999L15.1783 15.4746C15.4776 16.396 14.4232 17.1621 13.6394 16.5927L10.0882 14.0126C9.73773 13.7579 9.26314 13.7579 8.91265 14.0126L5.36142 16.5927C4.57771 17.1621 3.52323 16.396 3.82258 15.4746L5.17903 11.2999C5.3129 10.8879 5.16624 10.4365 4.81576 10.1819L1.26453 7.60177C0.480814 7.03237 0.883589 5.79275 1.85231 5.79275L6.24187 5.79275C6.6751 5.79275 7.05906 5.51379 7.19293 5.10177L8.54938 0.92705Z" fill="#E6E6E6"/>
</svg>
