<svg width="18" height="17" viewBox="0 0 18 17" fill="none" xmlns="http://www.w3.org/2000/svg">
<path d="M7.99371 0.92705C8.29307 0.00573945 9.59647 0.00574064 9.89583 0.927051L11.2523 5.10177C11.3861 5.51379 11.7701 5.79275 12.2033 5.79275L16.5929 5.79275C17.5616 5.79275 17.9644 7.03237 17.1807 7.60177L13.6294 10.1819C13.279 10.4365 13.1323 10.8879 13.2662 11.2999L14.6226 15.4746C14.922 16.396 13.8675 17.1621 13.0838 16.5927L9.53256 14.0126C9.18207 13.7579 8.70747 13.7579 8.35698 14.0126L4.80576 16.5927C4.02204 17.1621 2.96756 16.396 3.26691 15.4746L4.62336 11.2999C4.75724 10.8879 4.61058 10.4365 4.26009 10.1819L0.708863 7.60177C-0.0748503 7.03237 0.327925 5.79275 1.29665 5.79275L5.68621 5.79275C6.11943 5.79275 6.50339 5.51379 6.63727 5.10177L7.99371 0.92705Z" fill="#FCC02A"/>
</svg>
