<svg width="323" height="468" viewBox="0 0 323 468" fill="none" xmlns="http://www.w3.org/2000/svg">
<path fill-rule="evenodd" clip-rule="evenodd" d="M121.051 0H5C2.23858 0 0 2.23858 0 5.00001V463C0 465.761 2.23857 468 5 468H318C320.761 468 323 465.761 323 463V5C323 2.23858 320.761 0 318 0H200.949C200.84 0.335203 200.727 0.668556 200.61 1H318C320.209 1 322 2.79086 322 5V463C322 465.209 320.209 467 318 467H5C2.79086 467 1 465.209 1 463V5.00001C1 2.79087 2.79086 1 5 1H121.39C121.273 0.668556 121.16 0.335203 121.051 0Z" fill="#EBEBEB"/>
</svg>
