<svg width="566" height="356" viewBox="0 0 566 356" fill="none" xmlns="http://www.w3.org/2000/svg">
<path fill-rule="evenodd" clip-rule="evenodd" d="M243.39 0H5C2.23858 0 0 2.23858 0 5V351C0 353.761 2.23859 356 5.00001 356H561C563.761 356 566 353.761 566 351V5C566 2.23858 563.761 0 561 0H322.61C322.492 0.335308 322.369 0.668662 322.242 1H561C563.209 1 565 2.79086 565 5V351C565 353.209 563.209 355 561 355H5.00001C2.79087 355 1 353.209 1 351V5C1 2.79086 2.79086 1 5 1H243.758C243.631 0.668662 243.508 0.335308 243.39 0Z" fill="#EBEBEB"/>
</svg>
