<svg width="256" height="371" viewBox="0 0 256 371" fill="none" xmlns="http://www.w3.org/2000/svg">
<path fill-rule="evenodd" clip-rule="evenodd" d="M95.3199 0H5C2.23858 0 0 2.23857 0 4.99999V365.169C0 367.931 2.23857 370.169 4.99999 370.169H250.48C253.242 370.169 255.48 367.931 255.48 365.169V5C255.48 2.23858 253.242 0 250.48 0H158.68C158.574 0.33567 158.462 0.669035 158.346 1H250.48C252.689 1 254.48 2.79086 254.48 5V365.169C254.48 367.379 252.689 369.169 250.48 369.169H4.99999C2.79085 369.169 1 367.379 1 365.169V4.99999C1 2.79086 2.79086 1 5 1H95.6539C95.5374 0.669035 95.4261 0.33567 95.3199 0Z" fill="#EBEBEB"/>
</svg>
