<svg width="18" height="15" viewBox="0 0 18 15" fill="none" xmlns="http://www.w3.org/2000/svg">
<path d="M0.825701 7.36512L4.6735 8.8L6.17347 13.6264C6.23869 13.9525 6.62999 14.0177 6.89086 13.8221L9.043 12.0611C9.23865 11.8654 9.56474 11.8654 9.8256 12.0611L13.6734 14.8656C13.9342 15.0613 14.3256 14.9309 14.3908 14.6047L17.2603 0.908156C17.3255 0.582047 16.9994 0.255941 16.6733 0.386384L0.825701 6.51724C0.434402 6.64768 0.434402 7.23468 0.825701 7.36512ZM5.97783 8.08256L13.5429 3.45181C13.6734 3.38659 13.8038 3.58225 13.6734 3.64748L7.4778 9.45222C7.28215 9.64789 7.0865 9.90877 7.0865 10.2349L6.89086 11.8002C6.89086 11.9959 6.56477 12.0611 6.49955 11.8002L5.71695 8.93044C5.5213 8.60433 5.65175 8.213 5.97783 8.08256Z" fill="white"/>
</svg>
