<svg width="12" height="12" viewBox="0 0 12 12" fill="none" xmlns="http://www.w3.org/2000/svg">
<path d="M6.0009 0C4.28661 0 2.88525 1.40135 2.88525 3.11565C2.88525 4.82995 4.28661 6.2313 6.0009 6.2313C7.7152 6.2313 9.11655 4.82995 9.11655 3.11565C9.11655 1.40135 7.7152 0 6.0009 0Z" fill="#C1C1C1"/>
<path d="M11.3479 8.72101C11.2663 8.51693 11.1574 8.32646 11.035 8.14958C10.4091 7.2244 9.44315 6.61216 8.35472 6.4625C8.21867 6.44891 8.06901 6.47609 7.96016 6.55773C7.38872 6.9795 6.70847 7.19719 6.00097 7.19719C5.29347 7.19719 4.6132 6.9795 4.04177 6.55773C3.93292 6.47609 3.78326 6.43529 3.64721 6.4625C2.55878 6.61216 1.57919 7.2244 0.966954 8.14958C0.844506 8.32646 0.735652 8.53055 0.654037 8.72101C0.61323 8.80265 0.626824 8.89789 0.667631 8.97953C0.776485 9.17 0.912527 9.36049 1.03497 9.52375C1.22544 9.78226 1.42953 10.0135 1.66083 10.2312C1.8513 10.4217 2.06899 10.5986 2.28669 10.7754C3.36151 11.5782 4.65404 11.9999 5.98737 11.9999C7.3207 11.9999 8.61323 11.5781 9.68805 10.7754C9.90573 10.6122 10.1234 10.4217 10.3139 10.2312C10.5316 10.0135 10.7493 9.78224 10.9398 9.52375C11.0758 9.34687 11.1983 9.17 11.3071 8.97953C11.3751 8.89789 11.3887 8.80263 11.3479 8.72101Z" fill="#C1C1C1"/>
</svg>
