<svg width="18" height="19" viewBox="0 0 18 19" fill="none" xmlns="http://www.w3.org/2000/svg">
<path d="M15.2496 3.27245C13.5964 1.62482 11.3921 0.709473 9.06531 0.709473C4.22806 0.709473 0.309277 4.61496 0.309277 9.4358C0.309277 10.9614 0.737895 12.487 1.47267 13.7684L0.248047 18.2842L4.9016 17.0637C6.18745 17.735 7.59576 18.1011 9.06531 18.1011C13.9026 18.1011 17.8213 14.1956 17.8213 9.37477C17.7601 7.11691 16.9029 4.92008 15.2496 3.27245ZM13.2902 12.548C13.1066 13.0362 12.2493 13.5244 11.8207 13.5854C11.4533 13.6464 10.9635 13.6464 10.4736 13.5244C10.1675 13.4023 9.73885 13.2803 9.249 13.0362C7.04469 12.1208 5.63637 9.92398 5.51391 9.74091C5.39145 9.61887 4.59545 8.58147 4.59545 7.48305C4.59545 6.38463 5.14652 5.89645 5.33022 5.65235C5.51391 5.40826 5.75883 5.40826 5.94253 5.40826C6.06499 5.40826 6.24868 5.40826 6.37114 5.40826C6.4936 5.40826 6.6773 5.34724 6.86099 5.7744C7.04469 6.20156 7.4733 7.29998 7.53453 7.36101C7.59576 7.48305 7.59576 7.6051 7.53453 7.72715C7.4733 7.84919 7.41207 7.97124 7.28961 8.09328C7.16715 8.21533 7.04468 8.3984 6.98345 8.45942C6.86099 8.58147 6.73853 8.70352 6.86099 8.88659C6.98345 9.13068 7.41207 9.80194 8.08561 10.4122C8.94285 11.1444 9.61639 11.3885 9.86131 11.5106C10.1062 11.6326 10.2287 11.5716 10.3512 11.4496C10.4736 11.3275 10.9022 10.8393 11.0247 10.5952C11.1472 10.3511 11.3309 10.4122 11.5145 10.4732C11.6982 10.5342 12.8004 11.0834 12.9841 11.2055C13.229 11.3275 13.3515 11.3885 13.4127 11.4496C13.4739 11.6326 13.4739 12.0598 13.2902 12.548Z" fill="white"/>
</svg>
